<?xml version="1.0" encoding="utf-8"?>
<!-- Generator: Adobe Illustrator 27.5.0, SVG Export Plug-In . SVG Version: 6.00 Build 0)  -->
<svg version="1.1" id="_x3C_Layer_x3E_" xmlns="http://www.w3.org/2000/svg" xmlns:xlink="http://www.w3.org/1999/xlink" x="0px"
	 y="0px" viewBox="0 0 1740 870" style="enable-background:new 0 0 1740 870;" xml:space="preserve">
<g>
	<defs>
		<rect id="SVGID_1_" x="0" width="1740" height="870"/>
	</defs>
	<clipPath id="SVGID_00000047025524439596570920000001060212046347229082_">
		<use xlink:href="#SVGID_1_"  style="overflow:visible;"/>
	</clipPath>
	
		<rect x="-0.84" y="-30.972" style="clip-path:url(#SVGID_00000047025524439596570920000001060212046347229082_);fill:#B7DBF9;" width="1743.87" height="548.172"/>
	<path style="clip-path:url(#SVGID_00000047025524439596570920000001060212046347229082_);fill:#FFFFFF;" d="M1313.535,132.294
		c-1.167-3.719-0.694-7.688,2.909-11.362c10.076-10.276,23.089,0.482,32.52,4.454c-7.026-21.411,13.399-8.747,20.655-2.242
		c-0.612-19.784,19.387-12.853,25.256-0.285c-0.03-9.354,3.89-21.453,16.518-19.518c13.406,2.054,17.498,7.497,22.897,20.911
		c3.847-8.611,17.219-13.209,17.249-0.285c8.962-15.421,29.351-12.435,19.492,5.928c4.877-3.238,18.272-10.131,23.379-2.941
		c1.313,1.849,1.544,3.665,1.069,5.339H1313.535z"/>
	<path style="opacity:0.79;clip-path:url(#SVGID_00000047025524439596570920000001060212046347229082_);fill:#CFE7FF;" d="
		M1763.959,229.131c-3.044-33.724-18.778-77.485-35.489-77.24c-18.463,0.271-31.424,54.163-33.401,62.627
		c-21.559-53.132-64.589-88.647-110.642-89.766c-33.308-0.809-85.13,15.963-89.766,52.19c-4.35,33.992,35.867,61.49,37.577,62.627
		c-25.168-16.878-184.514-120.301-340.276-56.365c-33.469,13.738-101.191,49.33-96.029,77.241
		c6.859,37.088,142.806,62.716,661.764,27.139C1761.699,274.449,1766.194,253.891,1763.959,229.131z"/>
	<path style="opacity:0.79;clip-path:url(#SVGID_00000047025524439596570920000001060212046347229082_);fill:#CFE7FF;" d="
		M1133.785,440.964c11.87-47.471-14.565-86.162-41.752-89.766c-18.47-2.449-38.895,11.084-52.189,31.314
		c-4.228-10.025-44.57-101.505-139.868-123.167c-87.695-19.934-184.869,27.679-231.722,118.992
		c-18.675-45.589-62.041-129.089-150.306-169.094c-152.671-69.197-334.525,39.389-423.779,150.306
		C23.545,447.313,5.673,543.033,0.228,593.357c370.894-32.705,741.788-65.411,1112.682-98.116
		C1119.868,477.149,1126.826,459.056,1133.785,440.964z"/>
	<g style="clip-path:url(#SVGID_00000047025524439596570920000001060212046347229082_);">
		<path style="fill:#CC804C;" d="M1661.488,430.281c-11.011,0.491-22.025,0.985-33.036,1.475
			c-44.106,1.973-88.204,3.943-132.306,5.916c-33.227,1.486-66.451,2.972-99.674,4.458c-132.094,5.909-264.188,11.815-396.278,17.72
			c26.326-29.886,52.652-59.773,78.975-89.659c13.412-15.222,26.82-30.447,40.229-45.668c4.42-5.018,8.843-10.04,13.262-15.058
			c14.498-16.457,28.995-32.917,43.493-49.374c2.885-0.24,5.77-0.48,8.655-0.72c24.276-31.01,48.557-62.021,72.836-93.031
			c3.703-4.005,7.409-8.014,11.112-12.02c3.563-3.856,7.127-7.708,10.694-11.564c5.666-6.132,11.338-12.267,17.007-18.399
			c10.621-11.488,21.238-22.972,31.859-34.459c0.104,0.101,0.209,0.198,0.313,0.299c15.89,15.121,31.783,30.245,47.673,45.365
			c4.493,4.273,8.982,8.547,13.474,12.824c4.983,4.743,9.97,9.486,14.954,14.23c4.336,4.127,8.672,8.251,13.008,12.378
			c0.24,3.605,0.48,7.21,0.72,10.816c20.435,20.553,40.866,41.106,61.297,61.659c1.552,0.205,3.101,0.414,4.649,0.623h0.003
			c0.254,0.031,0.505,0.066,0.758,0.101c0.72,2.881,1.441,5.766,2.161,8.651c0.511,0.505,1.02,1.006,1.531,1.51
			c19.526,19.251,39.07,38.597,58.628,58.036c1.169,1.166,2.342,2.328,3.515,3.497c0.55,0.546,1.1,1.093,1.653,1.642
			c3.421,3.404,6.845,6.81,10.27,10.224c3.167,3.153,6.334,6.306,9.5,9.466c0.637,0.637,1.274,1.27,1.911,1.907
			c8.24,8.216,16.464,16.433,24.666,24.645c0.755,0.755,1.507,1.507,2.262,2.258c3.971,3.981,7.941,7.955,11.905,11.933h6.852
			c0.48,3.125,0.961,6.25,1.444,9.375C1634.803,404.32,1648.145,417.301,1661.488,430.281z"/>
		<path style="opacity:0.32;fill:#CC784A;" d="M1286.914,314.2l-2.61,10.44c-41.008,1.441-82.02,2.878-123.028,4.315
			c-0.348-1.973-0.696-3.943-1.044-5.916c-13.61,0.494-27.224,0.988-40.834,1.486c4.42-5.018,8.843-10.04,13.262-15.058h34.88
			c0.077,1.315,0.153,2.631,0.233,3.943c22.735-1.006,45.47-2.008,68.208-3.014c-0.247,1.789-0.494,3.581-0.741,5.37
			C1252.466,315.244,1269.688,314.722,1286.914,314.2z"/>
		<path style="opacity:0.32;fill:#CC784A;" d="M1285.063,325.033c18.328,0,36.656,0,54.984,0c0.077,1.315,0.155,2.629,0.232,3.944
			c22.736-1.005,45.472-2.011,68.208-3.016c-0.247,1.791-0.494,3.581-0.741,5.372c17.225-0.522,34.45-1.044,51.676-1.566
			c-0.87,3.48-1.74,6.96-2.61,10.439c-41.01,1.438-82.019,2.876-123.029,4.314c-0.348-1.972-0.696-3.944-1.044-5.916
			c-19.14,0.696-38.28,1.392-57.42,2.088C1278.567,335.473,1281.815,330.253,1285.063,325.033z"/>
		<path style="opacity:0.32;fill:#CC784A;" d="M1562.924,331.757c-28.707,1.006-57.413,2.011-86.12,3.021
			c-0.348-1.973-0.696-3.946-1.044-5.916l-57.42,2.088c3.247-5.22,6.497-10.44,9.744-15.66h54.984
			c0.077,1.315,0.153,2.627,0.233,3.943c21.395-0.947,42.787-1.893,64.185-2.84c1.169,1.166,2.342,2.328,3.515,3.497
			c-0.076,0.567-0.156,1.134-0.233,1.698c0.63-0.017,1.256-0.038,1.886-0.056C1556.075,324.936,1559.499,328.343,1562.924,331.757z"
			/>
		<path style="opacity:0.32;fill:#CC784A;" d="M1601.263,370.033c-0.477,0.933-0.953,1.865-1.43,2.798
			c-41.008,0.706-82.02,1.409-123.028,2.112c-0.348-0.964-0.696-1.931-1.044-2.895c-19.14,0.341-38.28,0.682-57.42,1.023
			c3.247-2.558,6.497-5.112,9.744-7.666h54.984c0.077,0.644,0.153,1.288,0.233,1.931c22.735-0.494,45.47-0.985,68.208-1.475
			c-0.247,0.877-0.494,1.75-0.741,2.627c16.078-0.237,32.155-0.477,48.233-0.713C1599.756,368.53,1600.508,369.282,1601.263,370.033
			z"/>
		<path style="opacity:0.32;fill:#CC784A;" d="M1260.341,374.944c18.328,0,36.656,0,54.984,0c0.077,0.643,0.155,1.287,0.232,1.93
			c22.736-0.492,45.472-0.984,68.208-1.476c-0.247,0.876-0.494,1.753-0.741,2.629c17.225-0.255,34.45-0.511,51.675-0.766
			c-0.87,1.703-1.74,3.406-2.61,5.109c-41.01,0.704-82.019,1.408-123.029,2.112c-0.348-0.965-0.696-1.93-1.044-2.896
			c-19.14,0.341-38.28,0.681-57.42,1.022C1253.845,380.053,1257.093,377.499,1260.341,374.944z"/>
		<path style="opacity:0.12;fill:#CC784A;" d="M1488.859,258.357c-38.353,1.343-76.71,2.69-115.063,4.037
			c-0.348-1.973-0.696-3.946-1.044-5.916l-57.42,2.088c3.247-5.22,6.497-10.44,9.744-15.66h54.984
			c0.077,1.315,0.153,2.627,0.233,3.943c22.735-1.006,45.47-2.011,68.208-3.017c-0.247,1.792-0.494,3.584-0.741,5.373
			c12.215-0.369,24.43-0.741,36.645-1.11h0.003c0.254,0.031,0.505,0.066,0.758,0.101c0.72,2.881,1.441,5.766,2.161,8.651
			C1487.839,257.351,1488.347,257.852,1488.859,258.357z"/>
		<path style="opacity:0.32;fill:#CC784A;" d="M1404.73,162.618c-7.374,1.197-14.748,2.391-22.126,3.588
			c-1.625,3.48-3.247,6.96-4.872,10.44c-9.629-0.348-19.255-0.696-28.884-1.044c-2.815-1.096-6.455-2.203-10.788-2.784
			c-6.793-0.908-12.514-0.146-16.356,0.696l-38.628-4.176c1.159-5.102,2.321-10.207,3.48-15.312
			c-5.933,0.101-11.867,0.198-17.8,0.296c9.232-9.988,18.468-19.975,27.701-29.963c23.556-6.863,55.684-1.66,79.845,11.206
			C1385.778,144.581,1395.254,153.602,1404.73,162.618z"/>
		<path style="fill:#DBA05E;" d="M1381.901,152.064c-1.225,0.129-2.45,0.254-3.678,0.383c0.237,0.783,0.463,1.816,0.508,3.045
			c0.035,0.87-0.031,1.643-0.125,2.283c-10.148,0.042-20.295,0.083-30.443,0.125c-1.566,1.733-3.132,3.466-4.694,5.203
			c-4.677-0.567-10.123-0.741-16.109,0c-1.416,0.174-2.784,0.39-4.093,0.637c-11.797-0.571-23.594-1.142-35.388-1.712
			c1.521-6.278,3.042-12.559,4.566-18.837c-4.333-0.143-8.665-0.289-12.994-0.432c5.666-6.132,11.338-12.267,17.007-18.399
			c10.621-11.488,21.238-22.971,31.859-34.459c15.994,15.222,31.992,30.443,47.986,45.665c4.493,4.273,8.982,8.547,13.474,12.824
			c0.167,0.167,0.331,0.338,0.498,0.505C1387.483,149.951,1384.692,151.009,1381.901,152.064z"/>
		<path style="opacity:0.32;fill:#CC784A;" d="M1496.748,423.864c27.607-0.696,55.217-1.392,82.824-2.088
			c-1.625-9.977-3.247-19.951-4.872-29.928c-40.601,0.696-81.199,1.392-121.8,2.088c-0.233,4.872-0.463,9.744-0.696,14.616h-59.16
			c1.141,11.195,2.286,22.383,3.428,33.578c-132.094,5.909-264.188,11.815-396.278,17.72c26.326-29.886,52.652-59.773,78.975-89.659
			c17.626-0.668,35.249-1.34,52.875-2.008c0.696-4.409,1.392-8.815,2.088-13.224c51.504-0.929,103.008-1.855,154.512-2.784
			c0.233-12.065,0.463-24.127,0.696-36.192c17.863,0.233,35.729,0.463,53.592,0.696c-0.233-4.409-0.463-8.815-0.696-13.224
			c29.232-0.233,58.464-0.463,87.696-0.696v16.008c26.681,0.233,53.359,0.463,80.04,0.696c0.463,7.889,0.929,15.775,1.392,23.664
			h62.971c8.24,8.216,16.464,16.433,24.666,24.645c0.755,0.755,1.507,1.507,2.262,2.258c3.971,3.981,7.941,7.955,11.905,11.933
			h6.852c0.48,3.125,0.961,6.25,1.444,9.375c13.339,12.98,26.681,25.961,40.023,38.941c-55.116,2.464-110.229,4.928-165.342,7.392
			C1496.348,433.072,1496.546,428.465,1496.748,423.864z"/>
		<path style="opacity:0.34;fill:#CC784A;" d="M1628.452,431.757c0.411-9.128,0.821-18.253,1.232-27.381
			c-3.247-0.463-6.497-0.929-9.744-1.392l-4.176-10.44c-4.291-0.348-8.585-0.696-12.876-1.044c-1.277-2.203-2.551-4.409-3.828-6.612
			c3.713-0.233,7.423-0.463,11.136-0.696c-34.685-34.337-69.367-68.671-104.052-103.008c-1.973-0.581-3.943-1.159-5.916-1.74
			c-0.233-1.855-0.463-3.713-0.696-5.568h-19.14v-7.656h8.352c-0.233-1.973-0.463-3.943-0.696-5.916
			c-6.031-0.115-12.065-0.233-18.096-0.348l-1.044-10.44c3.828-0.463,7.656-0.929,11.484-1.392
			c-3.595-2.784-7.193-5.568-10.788-8.352c-14.383-11.484-28.769-22.968-43.152-34.452c-0.463-3.48-0.929-6.96-1.392-10.44
			c-3.017-0.581-6.031-1.159-9.048-1.74v-7.308c-5.916,0.463-11.832,0.929-17.748,1.392c-0.115-3.365-0.233-6.727-0.348-10.092
			c4.524-0.115,9.048-0.233,13.572-0.348c-6.264-7.193-12.528-14.383-18.792-21.576c-4.639-1.159-9.281-2.321-13.92-3.48
			c2.088-1.625,4.176-3.247,6.264-4.872c-49.009-36.724-59.191-51.187-56.411-56.658c15.89,15.121,31.783,30.245,47.673,45.365
			c4.493,4.273,8.982,8.547,13.474,12.824c4.983,4.743,9.97,9.486,14.954,14.23c4.336,4.127,8.672,8.251,13.008,12.378
			c0.24,3.605,0.48,7.21,0.72,10.816c20.435,20.553,40.866,41.106,61.297,61.659c1.552,0.205,3.101,0.414,4.649,0.623h0.003
			c0.254,0.031,0.505,0.066,0.758,0.101c0.72,2.881,1.441,5.766,2.161,8.651c0.511,0.505,1.02,1.006,1.531,1.51
			c19.526,19.251,39.07,38.597,58.628,58.036c1.169,1.166,2.342,2.328,3.515,3.497c0.55,0.546,1.1,1.093,1.653,1.642
			c3.421,3.404,6.845,6.81,10.27,10.224c3.167,3.153,6.334,6.306,9.5,9.466c0.637,0.637,1.274,1.27,1.911,1.907
			c8.24,8.216,16.464,16.433,24.666,24.645c0.755,0.755,1.507,1.507,2.262,2.258c3.971,3.981,7.941,7.955,11.905,11.933h6.852
			c0.48,3.125,0.961,6.25,1.444,9.375c13.339,12.98,26.681,25.961,40.023,38.941
			C1650.477,430.772,1639.463,431.266,1628.452,431.757z"/>
	</g>
	<path style="clip-path:url(#SVGID_00000047025524439596570920000001060212046347229082_);fill:#FFBD6E;" d="M-8.399,488.699
		c39.664,3.479,79.328,6.959,118.992,10.438c5.707,5.069,11.415,10.138,17.122,15.207c7.888-11.136,15.776-22.272,23.664-33.408
		c263.552-10.44,527.104-20.88,790.656-31.32c6.96,2.784,13.92,5.568,20.88,8.352c51.968-2.784,103.936-5.568,155.904-8.352
		c118.32-3.248,235.48-9.048,353.8-12.296c5.104-4.64,11.368-6.728,16.472-11.368c54.752-0.928,109.504-1.856,164.256-2.784
		c7.888-4.64,15.776-9.28,23.664-13.92c37.12-0.928,74.24-1.856,111.36-2.784c18.096,162.4,36.192,324.8,54.288,487.2
		c-619.904-6.96-1239.808-13.92-1859.712-20.88C-14.167,744.756-11.283,616.728-8.399,488.699z"/>
	<path style="opacity:0.18;clip-path:url(#SVGID_00000047025524439596570920000001060212046347229082_);fill:#470918;" d="
		M570.627,624.626c-29.662,3.45-56.563,7.876-56.382,10.441c0.464,6.582,178.992-2.729,179.586,5.221
		c0.324,4.332-52.486,9.61-52.205,13.573c0.727,10.253,354.889-13.209,438.524,12.529c6.803,2.094,37.426,12.394,77.264,9.397
		c14.547-1.095,26.058-3.641,32.367-5.221c32.255,1.92,80.659,3.96,139.91,3.132c24.322-0.34,118.374-1.653,119.028-11.485
		c0.415-6.234-37.033-11.183-36.544-15.661c0.759-6.938,91.13,0.331,183.762-1.044c71.215-1.057,128.508-6.996,163.925-11.485
		c-48.09-4.703-121.399-10.928-210.909-14.618c-247.581-10.204-255.974,13.963-460.45,7.309
		C954.673,622.359,740.158,604.91,570.627,624.626z"/>
	<path style="opacity:0.7;clip-path:url(#SVGID_00000047025524439596570920000001060212046347229082_);fill:#D68147;" d="
		M-39.168,587.07c46.978-2.335,93.885-5.154,140.721-8.458c22.254-1.57,44.495-3.249,66.723-5.037
		c-4.553-1.288-6.77-2.508-6.65-3.66c0.461-4.45,35.786-7.881,105.969-10.295c-0.92,3.143-1.841,6.285-2.761,9.428
		c-40.868,0.567-74.045,1.575-74.188,3.425c-0.125,1.62,25.149,2.868,24.977,4.426c-0.102,0.927-9.226,1.995-75.487,3.453
		c-28.719,0.632-52.582,0.995-53.023,3.429c-0.3,1.661,10.577,2.728,10.492,4.273c-0.152,2.746-34.873,5.49-128.857,7.958
		C-33.891,593.031-36.53,590.051-39.168,587.07z"/>
	<path style="opacity:0.42;clip-path:url(#SVGID_00000047025524439596570920000001060212046347229082_);fill:#470918;" d="
		M-46.98,689.04c21.112-3.248,42.224-6.496,63.336-9.744c143.84-1.624,287.68-3.248,431.52-4.872c-1.16-6.96-2.32-13.92-3.48-20.88
		c13.688,0.464,27.376,0.928,41.064,1.392c2.436,1.508,4.872,3.016,7.308,4.524c3.016-0.928,6.032-1.856,9.048-2.784
		c23.74-3.068,41.728-4.744,42.108-2.784c0.252,1.301-7.471,3.12-7.308,4.872c0.236,2.541,16.951,3.893,63.336,2.784
		c4.176,2.552,8.352,5.104,12.528,7.656c16.704-1.856,33.408-3.712,50.112-5.568c-41.76,17.4-83.52,34.8-125.28,52.2
		c-61.132,23.78-122.264,47.56-183.396,71.34c-7.656-1.392-15.312-2.784-22.968-4.176c-13.92,1.624-27.84,3.248-41.76,4.872
		c-16.24-6.264-32.48-12.528-48.72-18.792c3.48,7.424,6.96,14.848,10.44,22.272c-11.271,6.703-25.941,13.806-43.848,18.792
		c-42.319,11.782-78.904,5.104-98.136,0c-24.36,0.464-48.72,0.928-73.08,1.392c-26.68-6.96-53.36-13.92-80.04-20.88
		C-45.124,756.784-46.052,722.912-46.98,689.04z"/>
	<path style="opacity:0.46;clip-path:url(#SVGID_00000047025524439596570920000001060212046347229082_);fill:#470918;" d="
		M311.46,534.528c-69.6,5.568-139.2,11.136-208.8,16.704c3.793,4.299,7.586,8.598,11.379,12.896
		c-8.526-4.002-17.051-8.004-25.577-12.005c-17.747-1.218-35.494-2.436-53.241-3.654c-4.176,3.306-8.352,6.612-12.527,9.918
		c-12.875,0.348-25.751,0.696-38.626,1.044c0.174,6.09,0.348,12.179,0.522,18.269c44.368,0.522,88.736,1.044,133.103,1.566
		c13.397-2.784,26.795-5.568,40.192-8.352c-0.174-2.958-0.348-5.916-0.522-8.874c49.588-2.61,99.175-5.22,148.763-7.83
		C307.904,547.65,309.682,541.089,311.46,534.528z"/>
	<path style="opacity:0.6;clip-path:url(#SVGID_00000047025524439596570920000001060212046347229082_);fill:#470918;" d="
		M-25.404,600.873c70.251-2.904,126.655-6.585,126.672-11.092c0.005-1.294-4.641-2.265-4.524-4.067
		c0.275-4.244,26.463-5.57,33.756-5.915c19.312-0.915,52.27-1.139,87.522-0.534c1.16-1.725-3.074-4.026-1.914-5.752
		c29-1.725,58-3.451,87-5.176c-15.776,19.965-31.552,39.93-47.328,59.894c-95.12,21.197-190.24,42.395-285.36,63.592
		C-28.188,661.507-26.796,631.19-25.404,600.873z"/>
	<path style="opacity:0.18;clip-path:url(#SVGID_00000047025524439596570920000001060212046347229082_);fill:#470918;" d="
		M745.219,552.707c-0.105-2.89,130.727-10.545,392.466-22.964c2.528,2.291,5.056,4.582,7.584,6.873
		c6.264-4.176,12.528-8.352,18.792-12.528c108.808-11.368,217.616-22.736,326.424-34.104c6.496,1.624,12.992,3.248,19.488,4.872
		c2.088-6.96,4.176-13.92,6.264-20.88c4.176-0.232,8.352-0.464,12.528-0.696c6.032,4.872,12.064,9.744,18.096,14.616
		c31.784-5.8,63.568-11.6,95.352-17.4c1.624-7.888,3.248-15.776,4.872-23.664c44.776,1.16,89.552,2.32,134.328,3.48
		c-11.368,7.888-22.736,15.776-34.104,23.664c-64.96,7.656-129.92,15.312-194.88,22.968c-18.096,5.104-36.192,10.208-54.288,15.312
		c-127.368,10.672-254.736,21.344-382.104,32.016c-9.512-1.392-19.024-2.784-28.536-4.176c-10.904,3.016-21.808,6.032-32.712,9.048
		C848.492,554.084,745.312,555.271,745.219,552.707z"/>
	<path style="opacity:0.18;clip-path:url(#SVGID_00000047025524439596570920000001060212046347229082_);fill:#470918;" d="
		M129.108,515.04c33.408,0.928,66.816,1.856,100.224,2.784c-22.272-6.96-44.544-13.92-66.816-20.88
		c121.58,0.19,243.148-0.274,364.704-1.392c125.744-1.156,251.488-3.012,377.232-5.568c-3.036-9.413-6.072-18.826-9.108-28.238
		c7.657,4.872,15.313,9.745,22.97,14.617c-0.348-6.265-0.696-12.529-1.044-18.794c22.274,3.48,44.549,6.961,66.823,10.441
		c-53.127,11.004-68.216,16.27-67.867,18.794c0.664,4.805,57.382,0.357,57.426,1.044c0.223,3.471-254.761,18.794-254.761,18.794
		c-134.631,8.09-329.309,19.404-575.302,32.367C138.762,531.02,133.935,523.03,129.108,515.04z"/>
	<path style="clip-path:url(#SVGID_00000047025524439596570920000001060212046347229082_);fill:#D68147;" d="M765.579,553.118
		c-0.25,11.366-0.505,22.731-0.755,34.097c-0.07,3.059-0.136,6.114-0.205,9.173c-6.316,0.16-12.632,0.317-18.945,0.477
		c-4.193,0.104-8.387,0.212-12.58,0.317c-53.275,1.336-106.551,2.676-159.822,4.013c-0.64,9.619-1.281,19.23-1.921,28.849
		c-31.09,2.561-62.181,5.126-93.271,7.691c-9.055,2.648-18.11,5.3-27.165,7.952c-4.086,1.194-8.171,2.391-12.257,3.588
		c1.437,14.08,2.875,28.157,4.312,42.237c0.167,1.625,0.331,3.25,0.498,4.875c-0.96,0.063-1.917,0.125-2.878,0.188
		c-13.784,0.901-27.572,1.799-41.353,2.697c-1.778-0.849-3.556-1.702-5.335-2.551c-3.135-1.5-6.267-3-9.4-4.496
		c-0.414-0.198-0.825-0.397-1.239-0.595h-0.003l-6.139-2.934c-21.684-0.484-43.364-0.971-65.045-1.458h-0.01
		c-0.905-0.017-1.81-0.038-2.714-0.059c-7.9-0.178-15.796-0.355-23.695-0.529c-4.026-0.09-8.056-0.181-12.083-0.271
		c-6.271-0.143-12.538-0.282-18.809-0.421c-2.164-0.049-4.326-0.097-6.49-0.146c-2.805,3.428-5.61,6.856-8.411,10.283
		c-2.387,2.916-4.775,5.832-7.158,8.749c-0.578,0.706-1.159,1.416-1.737,2.123c-18.124-0.209-36.248-0.421-54.371-0.633
		l-23.302-0.271c-1.674-0.021-3.344-0.038-5.018-0.059c-1.517-5.049-3.031-10.099-4.545-15.148
		c-0.407-1.361-0.818-2.721-1.225-4.082c-18.385-0.619-36.77-1.242-55.154-1.862c-2.37-0.08-4.74-0.16-7.11-0.24
		c-11.16-0.379-22.317-0.755-33.478-1.131c-1.775-0.059-3.553-0.122-5.328-0.181c-6.584-0.223-13.172-0.445-19.756-0.668
		c-0.592-0.021-1.18-0.038-1.771-0.059c-6.57-0.223-13.14-0.445-19.711-0.665c0.393-6.278,1.646-15.552,5.77-25.961
		c1.74-4.399,3.946-9.967,7.691-14.425c1.823-2.168,3.901-3.943,6.142-5.397c9.152-5.954,21.033-6.609,29.437-7.103
		c1.657-0.097,3.31-0.198,4.966-0.303c1.653-0.101,3.31-0.209,4.963-0.317c3.309-0.216,6.619-0.445,9.925-0.682
		c0.184-0.01,0.372-0.024,0.557-0.038c0.004,0,0.004,0,0.007,0c28.456-2.029,56.874-4.639,85.35-6.351
		c12.838-0.773,25.39-1.674,28.846-1.924c2.224-0.16,4.406-0.32,6.535-0.48c17.066-1.277,31.035-2.495,40.58-3.365
		c8.717-10.903,17.442-21.806,26.163-32.709c0.254-0.317,0.505-0.63,0.759-0.946c-1.239-1.284-2.321-2.676-3.24-4.148
		c-3.045-4.858-4.333-10.583-3.619-16.161c0.198-1.583,0.56-3.153,1.089-4.688c0.432-1.256,0.95-2.415,1.535-3.487
		c4.42-8.14,12.524-11.164,14.47-11.794c0.153-0.049,0.268-0.084,0.341-0.104c-0.209-0.922-0.985-4.555-0.856-9.438v-0.004
		c0.08-3.052,0.515-6.591,1.66-10.269c1.145-3.671,3.003-7.475,5.93-11.059c0.167-0.202,0.331-0.4,0.498-0.595
		c0.021-0.024,0.045-0.052,0.066-0.077c3.553-4.124,7.597-6.751,11.046-8.418c2.151-1.037,4.072-1.705,5.502-2.126
		c0.431-0.129,0.821-0.237,1.155-0.324c-0.017-0.059-0.035-0.118-0.052-0.177c-2.116-7.054-2.471-12.326-1.886-16.307
		c0.48-3.313,1.608-5.735,2.902-7.552c3.637-5.105,8.008-4.576,11.766-9.525c0.247-0.327,0.491-0.679,0.734-1.054
		c0.842-1.312,1.406-2.575,1.778-3.807c1.75-5.773-0.644-10.885,2.067-17.344c0.296-0.703,0.654-1.43,1.093-2.168
		c2.492-4.211,7.552-8.822,18.138-12.257c0.066-0.383,0.129-0.772,0.191-1.166c0.915-5.693,1.545-12.166,1.322-18.931
		c-0.341-10.485-2.718-21.68-9.208-31.825c-8.248-12.893-15.159-11.606-18.267-21.155c-2.276-6.981-1.448-16.488,52.882-82.692
		c4.507-5.488,10.367-12.525,20.194-19.23c0.515-0.352,1.166-0.786,1.949-1.288c1.096-0.703,2.453-1.528,4.051-2.429
		c6.657-3.741,17.529-8.689,31.497-10.704c3.779-0.546,7.385-0.821,10.868-0.859c8.178-0.098,15.702,1.082,23.26,3.024
		c7.44,1.911,14.915,4.559,23.083,7.451c6.483,2.297,12.323,4.834,17.974,8.999c1.065,0.783,2.126,1.629,3.181,2.537
		c6.664,5.749,10.329,11.714,12.5,15.385c14.334,24.238,36.63,72.092,37.981,75.001c-16.046,14.748-22.912,36.909-17.79,57.691
		c7.186,29.138,34.097,39.933,36.54,40.866c25.48,2.405,50.961,4.806,76.442,7.211c1.601,5.93,3.205,11.86,4.806,17.79
		c7.054,0.8,14.104,1.601,21.155,2.401c2.565,3.849,5.13,7.694,7.691,11.54c2.085,0.96,4.169,1.924,6.254,2.885
		c2.081,4.005,4.166,8.011,6.25,12.02c0.157-5.93,0.32-11.86,0.48-17.79c2.561-0.32,5.126-0.64,7.691-0.96
		c2.245-3.045,4.486-6.09,6.73-9.135c11.059,2.405,22.115,4.806,33.175,7.211v12.98c3.845,1.604,7.691,3.205,11.536,4.809
		c-0.16,5.45-0.32,10.896-0.48,16.346h6.73c-0.08,6.57-0.16,13.141-0.24,19.711c1.59-1.688,4.239-1.549,5.53,0
		c1.152,1.382,1.027,3.658-0.48,5.049c2.321,0.08,4.646,0.16,6.971,0.24C763.495,545.747,764.539,549.433,765.579,553.118z"/>
	<path style="clip-path:url(#SVGID_00000047025524439596570920000001060212046347229082_);fill:#D68147;" d="M303.108,480.24
		c-0.233,5.568-0.463,11.136-0.696,16.704c12.295,3.48,24.593,6.96,36.888,10.44l-56.376,4.176
		c-5.391,4.416-10.6,10.179-9.744,16.008c1.514,10.318,21.061,14.299,20.184,18.792c-0.887,4.541-20.779,0.174-26.448,8.352
		c-3.355,4.844-2.415,15.082,14.616,38.28c-10.44,9.281-20.88,18.559-31.32,27.84C134.927,638.507,89.881,640.63,74.124,637.536
		c-3.229-0.633-22.352-4.851-38.976,4.176c-4.548,2.471-6.991,4.889-7.656,5.568c-10.732,10.952-8.954,27.979-7.583,35.35
		c-6.57-0.223-13.14-0.445-19.711-0.665c0.393-6.278,1.646-15.552,5.77-25.961c1.74-4.399,3.946-9.967,7.691-14.425
		c1.823-2.168,3.901-3.943,6.142-5.397c9.152-5.954,21.033-6.609,29.437-7.103c1.657-0.097,3.31-0.198,4.966-0.303
		c1.653-0.101,3.31-0.209,4.963-0.317c3.309-0.216,6.619-0.445,9.925-0.682c0.184-0.01,0.372-0.024,0.557-0.038
		c0.004,0,0.004,0,0.007,0c28.456-2.029,56.874-4.639,85.35-6.351c12.838-0.773,25.39-1.674,28.846-1.924
		c2.224-0.16,4.406-0.32,6.535-0.48c17.066-1.277,31.035-2.495,40.58-3.365c8.717-10.903,17.442-21.806,26.163-32.709
		c0.254-0.317,0.505-0.63,0.759-0.946c-1.239-1.284-2.321-2.676-3.24-4.148c-3.045-4.858-4.333-10.583-3.619-16.161
		c0.198-1.583,0.56-3.153,1.089-4.688c0.432-1.256,0.95-2.415,1.535-3.487c4.42-8.14,12.524-11.164,14.47-11.794
		c0.153-0.049,0.268-0.084,0.341-0.104c-0.209-0.922-0.985-4.555-0.856-9.438v-0.004c0.08-3.052,0.515-6.591,1.66-10.269
		c1.145-3.671,3.003-7.475,5.93-11.059c0.167-0.202,0.331-0.4,0.498-0.595c0.021-0.024,0.045-0.052,0.066-0.077
		c3.553-4.124,7.597-6.751,11.046-8.418c2.151-1.037,4.072-1.705,5.502-2.126c0.431-0.129,0.821-0.237,1.155-0.324
		c-0.017-0.059-0.035-0.118-0.052-0.177c-2.116-7.054-2.471-12.326-1.886-16.307c0.48-3.313,1.608-5.735,2.902-7.552
		c3.637-5.105,8.008-4.576,11.766-9.525c0.247-0.327,0.491-0.679,0.734-1.054c0.842-1.312,1.406-2.575,1.778-3.807
		c1.75-5.773-0.644-10.885,2.067-17.344c0.296-0.703,0.654-1.43,1.093-2.168c2.492-4.211,7.552-8.822,18.138-12.257
		c0.066-0.383,0.129-0.772,0.191-1.166c0.251,0.275,0.501,0.546,0.752,0.821c-0.651,0.348-13.349,7.332-12.528,16.704
		c0.317,3.591,2.544,6.709,6.264,9.744c17.257,14.08,44.989,8.766,45.24,10.44C370.088,466.724,358.238,470.078,303.108,480.24z"/>
	<path style="clip-path:url(#SVGID_00000047025524439596570920000001060212046347229082_);fill:#D68147;" d="M641.364,467.248
		c19.256,2.939,38.512,5.877,57.768,8.816c-4.949,10.285-9.899,20.571-14.848,30.856c-28.651-9.675-47.434-22.677-46.168-33.408
		C638.334,471.66,639.191,469.534,641.364,467.248z"/>
	<path style="opacity:0.48;clip-path:url(#SVGID_00000047025524439596570920000001060212046347229082_);fill:#470918;" d="
		M389.746,363.114c-4.04,9.09-8.081,18.183-12.121,27.273c-4.04-1.009-8.08-2.018-12.121-3.031c-3.316,2.109-6.633,4.221-9.946,6.33
		c-8.014,5.098-16.029,10.196-24.04,15.298c-0.16-4.917-0.769-9.994-2.039-15.044c-0.365-1.462-0.79-2.92-1.274-4.367
		c-0.595-1.789-1.281-3.567-2.074-5.328c-0.289-0.647-0.592-1.291-0.912-1.935c-0.86-1.74-1.827-3.459-2.909-5.15
		c-0.459-0.72-0.915-1.396-1.371-2.029c-0.424-0.602-0.849-1.169-1.27-1.705c-7.064-9.006-12.855-8.909-15.625-17.421
		c-2.276-6.981-1.448-16.488,52.882-82.692c4.507-5.488,10.367-12.525,20.194-19.23c0.515-0.352,1.166-0.786,1.949-1.288
		c-1.844,7.764-4.493,19.147-7.506,33.046c-0.539,2.485-1.016,4.691-1.434,6.643c-1.434,6.671-2.185,10.409-2.353,12.295
		c-0.56,6.358-2.164,28.017,11.362,46.97C383.054,357.236,387.154,360.973,389.746,363.114z"/>
	<path style="opacity:0.46;clip-path:url(#SVGID_00000047025524439596570920000001060212046347229082_);fill:#470918;" d="
		M765.579,553.118c-0.25,11.366-0.505,22.731-0.755,34.097c-0.07,3.059-0.136,6.114-0.205,9.173
		c-10.51,0.265-21.019,0.529-31.525,0.793c-67.501-8.756-135.007-17.508-202.512-26.26c-1.375,0.334-2.749,0.672-4.124,1.006
		c-42.533,10.377-85.065,20.751-127.594,31.129c-9.789-5.951-19.575-11.902-29.361-17.852c-2.499-11.094,0.964-22.533,9.125-29.758
		c9.608-8.505,21.433-7.364,23.41-7.141c-2.645-5.29-5.293-10.583-7.934-15.869c-3.01-3.41-2.923-5.801-2.777-6.744
		c0.766-5.105,9.386-9.535,21.82-9.128c1.984,2.913,3.967,5.822,5.951,8.728c22.484,0.797,44.965,1.59,67.446,2.38
		c1.987-3.303,3.971-6.612,5.951-9.915v10.711c9.006,0.348,18.016,0.693,27.022,1.041c1.308,0.049,2.617,0.101,3.925,0.15
		c0.265-3.045,0.529-6.086,0.794-9.125c-1.016-0.4-2.032-0.797-3.049-1.194c-2.025-0.794-4.051-1.587-6.076-2.38
		c2.909-4.099,5.819-8.199,8.728-12.295c-24.993-1.855-49.99-3.706-74.984-5.557c26.204-1.998,52.409-3.992,78.613-5.989
		c1.566-0.118,3.135-0.24,4.701-0.359c1.19-2.909,2.38-5.818,3.57-8.728c-2.436-0.118-4.872-0.237-7.308-0.355
		c-16.607-0.807-33.217-1.615-49.823-2.422c-8.992-1.458-17.985-2.909-26.977-4.364c-0.797,2.777-1.587,5.554-2.38,8.331
		c-5.951-1.19-11.905-2.38-17.856-3.57c-12.034-2.645-24.068-5.293-36.105-7.934c10.979-0.264,21.955-0.529,32.931-0.797
		c5.29,2.777,10.579,5.557,15.872,8.335c-0.268-3.042-0.532-6.083-0.793-9.125c17.588,0.129,35.179,0.264,52.767,0.393
		c-17.988-15.604-35.973-31.209-53.961-46.816c-3.567,2.119-7.141,4.235-10.712,6.351h-7.934c2.116-3.835,4.232-7.67,6.348-11.508
		c-4.757-0.397-9.521-0.79-14.282-1.187c1.851-4.496,3.703-8.992,5.554-13.489c-4.496-2.648-8.992-5.293-13.488-7.938
		c-1.322-7.802-2.645-15.608-3.971-23.406c-6.403-3.139-14.077-7.701-13.488-11.905c0.863-6.121,18.708-7.402,18.646-11.898
		c-0.052-4.051-14.567-6.268-14.278-8.731c0.171-1.462,5.429-2.088,10.711-2.377c-0.216-1.19-0.658-4.545,1.187-7.941
		c3.208-5.888,10.273-6.327,10.715-6.344c0.132-2.116,0.264-4.232,0.397-6.348c3.894,0.198,10.283-0.038,17.059-3.177
		c7.444-3.445,16.165-10.774,14.682-15.072c-1.392-4.033-11.362-4.298-13.885-4.367c-2.697-0.073-4.169-0.09-5.558,0.794
		c-3.452,2.206-4.165,8.609-1.98,16.269c-4.632-0.797-9.26-1.587-13.889-2.38c2.248-1.322,4.496-2.645,6.744-3.971l1.19-9.918
		c-2.248,1.458-4.496,2.913-6.744,4.364h-9.128c1.904-1.486,5.084-4.409,7.144-9.125c3.884-8.898,0.734-17.233,0-19.043h5.157
		c0.397-2.248,0.793-4.496,1.19-6.744h32.534c1.462-3.059,2.993-7.534,2.38-12.695c-0.519-4.347-2.161-5.874-1.984-7.541
		c0.052-0.494,0.261-0.967,0.609-1.423c7.722,1.984,15.479,4.733,23.956,7.733c4.524,1.604,8.749,3.32,12.813,5.585
		c1.065,0.783,2.126,1.629,3.181,2.537c6.664,5.749,10.329,11.714,12.5,15.385c14.334,24.238,36.63,72.092,37.981,75.001
		c-8.902,8.182-14.978,18.646-17.748,29.886c-2.227,9.024-2.321,18.552-0.042,27.805c0.915,3.717,2.154,7.134,3.619,10.269
		c0.261,0.56,0.529,1.114,0.804,1.653c10.301,20.236,30.043,28.15,32.117,28.943c25.48,2.405,50.961,4.806,76.442,7.211
		c1.601,5.93,3.205,11.86,4.806,17.79c7.054,0.8,14.104,1.601,21.155,2.401c2.565,3.849,5.13,7.694,7.691,11.54
		c2.085,0.96,4.169,1.924,6.254,2.885c2.081,4.005,4.166,8.011,6.25,12.02c0.157-5.93,0.32-11.86,0.48-17.79
		c2.561-0.32,5.126-0.64,7.691-0.96c2.245-3.045,4.486-6.09,6.73-9.135c11.059,2.405,22.115,4.806,33.175,7.211v12.98
		c3.845,1.604,7.691,3.205,11.536,4.809c-0.16,5.45-0.32,10.896-0.48,16.346h6.73c-0.08,6.57-0.16,13.141-0.24,19.711
		c1.59-1.688,4.239-1.549,5.53,0c1.152,1.382,1.027,3.658-0.48,5.049c2.321,0.08,4.646,0.16,6.971,0.24
		C763.495,545.747,764.539,549.433,765.579,553.118z"/>
	<path style="opacity:0.46;clip-path:url(#SVGID_00000047025524439596570920000001060212046347229082_);fill:#470918;" d="
		M375.713,279.239c-0.984-2.734,5.594-8.854,12.802-10.402c7.774-1.67,14.253,2.415,16.003,3.601c0.715,1.786,3.628,9.629,0,18.003
		c-1.838,4.243-4.633,6.955-6.401,8.402c-6.134-0.267-12.269-0.533-18.403-0.8c4.534-1.734,12.54-4.156,16.484-7.346
		c-5.239-0.116-11.839-0.154-13.309-3.944c-0.996-2.569,0.524-6.136,2.869-8.642C380.748,278.075,376.059,280.199,375.713,279.239z"
		/>
	<path style="clip-path:url(#SVGID_00000047025524439596570920000001060212046347229082_);fill:#B56630;" d="M330.659,478.524
		c-11.268-0.146-22.237-0.508-32.886-1.044c5.801,2.624,12.424,5.168,19.836,7.308c17.146,4.945,32.541,5.989,44.367,5.742
		l3.654,8.874c-15.622,0.129-31.456,0.132-47.499,0c-8.296-0.07-16.537-0.174-24.719-0.31c-2.116-7.054-2.471-12.326-1.886-16.307
		c0.48-3.313,1.608-5.735,2.902-7.552c3.637-5.105,8.008-4.576,11.766-9.525c0.247-0.327,0.491-0.679,0.734-1.054
		c0.842-1.312,1.406-2.575,1.778-3.807c7.865,1.597,16.238,3,25.084,4.103c22.216,2.77,42.31,3.01,59.504,2.088l-6.786,10.44
		C368.789,478.375,350.144,478.778,330.659,478.524z"/>
	<path style="clip-path:url(#SVGID_00000047025524439596570920000001060212046347229082_);fill:#B56630;" d="M378.68,545.859
		c-19.314-0.661-38.628-1.357-57.939-2.088c-17.543-0.665-35.082-1.357-52.618-2.084c0.153-0.049,0.268-0.084,0.341-0.104
		c-0.209-0.922-0.985-4.555-0.856-9.438v-0.004c0.08-3.052,0.515-6.591,1.66-10.269c1.145-3.671,3.003-7.475,5.93-11.059
		c0.188-0.23,0.376-0.452,0.564-0.672c4.726,0.947,9.452,1.89,14.181,2.836c1.451,5.095,2.899,10.189,4.35,15.288
		c0.153-4.639,0.31-9.281,0.463-13.92c15.448,2.328,30.895,4.656,46.343,6.981c8.526-0.348,17.049-0.696,25.575-1.044
		L378.68,545.859z"/>
	<path style="opacity:0.25;clip-path:url(#SVGID_00000047025524439596570920000001060212046347229082_);fill:#470918;" d="
		M65.128,635.629c-6.598,5.975-13.193,11.95-19.791,17.925c-1.298,9.932-2.603,19.871-3.901,29.803
		c-6.584-0.223-13.172-0.445-19.756-0.668c1.538-9.466,3.076-18.924,4.615-28.39C39.241,648.077,52.183,641.855,65.128,635.629z"/>
	<path style="opacity:0.25;clip-path:url(#SVGID_00000047025524439596570920000001060212046347229082_);fill:#470918;" d="
		M75.958,654.675c1.427,9.998,2.857,19.996,4.284,29.994c-11.16-0.379-22.317-0.755-33.478-1.131
		c3.132-10.367,6.268-20.737,9.403-31.104c14.564-5.975,29.124-11.95,43.688-17.925C91.889,641.232,83.924,647.952,75.958,654.675z"
		/>
	<path style="opacity:0.6;clip-path:url(#SVGID_00000047025524439596570920000001060212046347229082_);fill:#470918;" d="
		M251.089,652.434c-3.745,14.553-7.486,29.107-11.227,43.66c-0.741,2.871-1.479,5.745-2.217,8.616
		c-1.646,0.045-3.295,0.087-4.942,0.132c-18.705,0.498-37.406,0.992-56.108,1.489c-7.781,0.205-15.563,0.414-23.344,0.62
		c0.014-0.296,0.028-0.595,0.042-0.891c0.362-7.795,0.72-15.587,1.079-23.382c-3.466,2.927-7.019,5.655-10.642,8.174
		c-0.407-1.361-0.818-2.721-1.225-4.082c-18.385-0.619-36.77-1.242-55.154-1.862c0.56-9.831,1.117-19.659,1.674-29.49
		c10.583-5.85,21.162-11.7,31.741-17.55c7.343-1.618,14.689-3.236,22.032-4.855c-7.593,5.352-15.187,10.704-22.777,16.057
		c2.662,10.534,6.261,21.433,10.082,21.284c3.007-0.115,3.939-7.002,8.213-13.816c5.909-9.417,16.039-15.256,28.379-18.67
		c12.699-0.623,25.394-1.246,38.089-1.865c-1.242,2.861-2.488,5.725-3.734,8.589c3.985,0.498,7.966,0.995,11.95,1.493
		c-0.125-2.614-0.251-5.227-0.372-7.844c10.579,0.125,21.158,0.251,31.738,0.376C246.607,643.222,248.848,647.83,251.089,652.434z"
		/>
	<path style="opacity:0.46;clip-path:url(#SVGID_00000047025524439596570920000001060212046347229082_);fill:#470918;" d="
		M288.802,643.473c-4.855,5.102-9.709,10.207-14.564,15.308c-0.219,9.201-0.442,18.395-0.665,27.596
		c-6.271-0.143-12.538-0.282-18.809-0.421c1.142-9.681,2.279-19.359,3.417-29.041C268.388,652.434,278.595,647.952,288.802,643.473z
		"/>
	<path style="opacity:0.46;clip-path:url(#SVGID_00000047025524439596570920000001060212046347229082_);fill:#470918;" d="
		M328.383,641.977c-6.097,5.853-12.197,11.703-18.298,17.553c-0.244,9.215-0.491,18.434-0.734,27.649
		c-7.9-0.178-15.796-0.355-23.695-0.529c0.675-9.911,1.35-19.822,2.025-29.733c6.348-0.25,12.699-0.501,19.046-0.748
		C313.945,651.439,321.166,646.709,328.383,641.977z"/>
	<path style="opacity:0.46;clip-path:url(#SVGID_00000047025524439596570920000001060212046347229082_);fill:#470918;" d="
		M325.961,686.27c-0.696-8.177-1.392-16.355-2.088-24.533c2.36,0.036,5.865-0.249,9.396-2.088c4.577-2.384,5.87-5.648,10.44-9.917
		c2.239-2.093,5.747-4.877,10.961-7.308c-2.61,6.438-5.22,12.875-7.829,19.313c2.088,9.918,4.176,19.835,6.264,29.753
		C344.056,689.75,335.008,688.01,325.961,686.27z"/>
	<path style="opacity:0.7;clip-path:url(#SVGID_00000047025524439596570920000001060212046347229082_);fill:#D68147;" d="
		M278.748,631.62c-12.722,3.032-21.264,10.575-25.752,15.312c0.375,1.247,1.219,3.245,3.132,4.524
		c3.354,2.242,8.724,1.422,12.876-2.436c19.831-11.665,23.687-16.043,22.968-17.748C290.919,628.776,279.79,631.372,278.748,631.62z
		"/>
	<path style="opacity:0.7;clip-path:url(#SVGID_00000047025524439596570920000001060212046347229082_);fill:#D68147;" d="
		M276.892,679.76c-0.462-0.081-0.526-3.528,1.392-19.024c2.354-4.166,6.218-9.969,12.296-15.544
		c10.339-9.483,25.148-16.53,27.84-13.456c1.383,1.579,0.191,6.543-11.832,21.808c-4.524-1.093-11.087-1.869-16.704,1.392
		C278.723,661.414,277.969,679.949,276.892,679.76z"/>
	<path style="opacity:0.7;clip-path:url(#SVGID_00000047025524439596570920000001060212046347229082_);fill:#D68147;" d="
		M478.9,616.847c0.028,0.184-1.267,0.585-3.887,1.194c0.773-0.223,1.549-0.449,2.321-0.672c-7.729,0.633-19.474,1.688-32.646,3.313
		C467.409,617.585,478.813,616.305,478.9,616.847z"/>
	<path style="opacity:0.7;clip-path:url(#SVGID_00000047025524439596570920000001060212046347229082_);fill:#D68147;" d="
		M477.334,617.369c-0.773,0.223-1.549,0.449-2.321,0.672c-0.003,0-0.01,0.003-0.014,0.003c-32.28,9.344-64.561,18.691-96.841,28.035
		c-0.348,5.046-0.696,10.089-1.044,15.135c-8.328,2.488-14.734,1.768-18.27,1.044c-3.327-0.682-5.892-1.242-6.786-3.132
		c-2.133-4.51,6.995-12.953,9.918-15.656c2.565-2.373,6.135-4.548,10.454-6.539c-8.07,1.409-16.6,2.892-25.588,4.451
		c-0.515,1.764-3.313,10.687-12.528,15.656c-8.088,4.364-19.171,4.632-20.358,1.566c-1.006-2.593,4.639-8.707,30.798-23.487
		c33.084-4.91,60.047-8.843,80.893-11.787l0.073-0.01c7.019-0.992,13.342-1.869,18.97-2.638
		C457.86,619.057,469.605,618.003,477.334,617.369z"/>
	<path style="opacity:0.7;clip-path:url(#SVGID_00000047025524439596570920000001060212046347229082_);fill:#D68147;" d="
		M444.688,620.682c-5.627,0.769-11.95,1.646-18.97,2.638C432.174,622.307,438.584,621.434,444.688,620.682z"/>
	<path style="opacity:0.7;clip-path:url(#SVGID_00000047025524439596570920000001060212046347229082_);fill:#D68147;" d="
		M224.175,625.199c12.257,4.75,18.173,8.056,17.748,9.918c-0.501,2.203-9.897,2.377-28.188,0.522
		c-2.088,2.958-4.173,5.916-6.26,8.874l-2.61-11.484c-4.451-0.425-27.659-2.426-43.326,4.698
		c-12.618,5.738-16.704,9.396-16.704,9.396c-3.014,2.701-5.008,5.29-8.871,6.26c-4.343,1.093-8.533-0.494-11.484-2.085
		c6.264-5.916,12.528-11.832,18.788-17.748c-12.918-0.793-21.555,2.206-27.14,5.22c-9.361,5.046-14.933,12.695-27.144,14.09
		c-1.782,0.205-7.583,0.87-8.352-1.04c-1.35-3.358,13.649-12.549,26.622-19.836c-32.301,14.15-49.176,19.892-50.631,17.226
		c-1.013-1.855,5.425-7.771,19.311-17.748c-0.233-0.125-0.463-0.251-0.696-0.376c-6.403,1.688-12.806,3.372-19.21,5.056
		c-10.555,4.757-21.113,9.511-31.668,14.268c-0.588,0.007-8.157,0.028-9.744-3.828c-1.458-3.539,3.017-8.174,5.185-10.402
		c9.152-5.954,21.033-6.609,29.437-7.103c1.657-0.097,3.31-0.198,4.966-0.303c1.653-0.101,3.31-0.209,4.963-0.317
		c3.309-0.216,6.619-0.445,9.925-0.682c0.184-0.01,0.372-0.024,0.557-0.038c0.004,0,0.004,0,0.007,0
		c28.456-2.029,56.874-4.639,85.35-6.351c12.838-0.773,25.39-1.674,28.846-1.924c2.224-0.16,4.406-0.32,6.535-0.48
		c15.389-0.755,28.863-1.475,40.573-2.137c12.295-0.693,38.966-2.241,39.15-0.522C270.285,617.978,245.904,621.953,224.175,625.199z
		"/>
	<path style="opacity:0.7;clip-path:url(#SVGID_00000047025524439596570920000001060212046347229082_);fill:#D68147;" d="
		M416.556,513.996c-0.804,1.994-7.59-0.251-14.964,1.044c-6.581,1.155-11.477,4.75-14.616,7.656
		c2.279,11.752,2.627,17.898,1.044,18.444c-1.263,0.435-3.108-10.635-12.528-19.14c-2.37-2.14-4.632-3.591-6.264-4.524
		c-9.629,1.507-19.255,3.017-28.884,4.524c-15.197-3.365-30.391-6.727-45.588-10.092c-1.103,1.855-2.203,3.713-3.306,5.568
		c-0.811-2.029-1.625-4.061-2.436-6.09c-4.441-0.39-8.878-0.779-13.318-1.169c0.021-0.024,0.045-0.052,0.066-0.077
		c3.553-4.124,7.597-6.751,11.046-8.418c3.894,0.693,8.314,1.437,13.168,2.182c13.339,2.046,28.606,3.814,42.804,4.872
		c32.691,2.44,60.649-7.548,70.992,1.044C414.29,510.251,417.12,512.601,416.556,513.996z"/>
	<path style="opacity:0.7;clip-path:url(#SVGID_00000047025524439596570920000001060212046347229082_);fill:#D68147;" d="
		M387.787,257.52c-1.458,2.147-3.852,6.515-2.551,7.889c0.867,0.912,2.742-0.164,5.105-0.466c2.996-0.379,7.2,0.438,12.758,5.338
		c-2.126-1.128-6.908-3.254-12.991-2.554c-1.733,0.202-9.866,1.138-14.153,7.889c-1.59,2.506-2.116,4.969-2.318,6.497
		c8.136-5.022,10.485-3.577,10.67-3.306c0.303,0.442-6.128,1.382-5.568,5.161c0.369,2.485,3.713,4.04,6.497,5.335
		c4.437,2.067,7.743,1.364,7.889,2.088c0.153,0.783-3.383,2.582-18.792,6.96c8.738,0.62,17.477,1.239,26.215,1.858
		c2.321-2.398,4.639-4.796,6.96-7.193c-1.778,3.79-3.557,7.579-5.335,11.369c-12.173-4.086-23.048-4.246-27.144,0.23
		c-1.02,1.117-1.858,2.554-1.858,2.554c-2.725,4.684-2.286,9.601-1.855,13.224c1.427,11.936,4.583,24.621,5.335,27.607
		c-1.736-3.661-3.863-8.756-5.596-15.051c-1.364-4.949-3.393-12.531-3.219-22.533c0.083-4.914,0.731-12.055,3.393-20.358
		c0.525-3.372,1.131-6.824,1.827-10.353c1.817-9.208,4.026-17.776,6.438-25.665c1.103-1.242,2.311-2.474,3.626-3.675
		c6.657-3.741,17.529-8.689,31.497-10.704c3.779-0.546,7.385-0.821,10.868-0.859c-0.887,1.831-1.775,3.664-2.666,5.495
		c-1.347,0.083-20.337,1.382-29.232,7.423C390.209,254.016,388.023,257.172,387.787,257.52z"/>
	<path style="opacity:0.7;clip-path:url(#SVGID_00000047025524439596570920000001060212046347229082_);fill:#D68147;" d="
		M389.119,370.476c2.784,2.262,5.568,4.524,8.352,6.786c0,6.96,0,13.919,0,20.879c5.568,3.654,11.135,7.308,16.703,10.961
		c-0.87,4.002-1.74,8.004-2.61,12.005c-60.688-0.076-74.009-2.171-74.12-4.176c-0.102-1.84,10.891-4.049,19.313-5.742
		c13.99-2.812,25.944-3.278,34.45-3.132c-34.601-0.455-42.1-2.685-42.28-4.698c-0.21-2.35,9.43-5.792,16.703-7.308
		c13.247-2.761,19.363,0.718,23.489-3.132C391.902,390.324,393.641,384.521,389.119,370.476z"/>
	<path style="opacity:0.7;clip-path:url(#SVGID_00000047025524439596570920000001060212046347229082_);fill:#D68147;" d="
		M319.175,447.206c13.26-4.186,21.735-1.224,40.714,0.522c12.135,1.117,21.511,1.087,35.494,1.044
		c5.993-0.019,13.874-0.056,24.147-0.691c13.058-0.807,24.038-2.213,32.226-3.485c17.058,12.327,19.953,16.105,19.313,17.225
		c-0.947,1.659-9.699-2.422-27.021-6.289c-7.156-1.597-13.104-2.562-17.052-3.132c0.051,5.457-0.297,8.241-1.044,8.352
		c-0.844,0.126-2.197-3.161-4.06-9.86c-11.794,0.455-23.587,0.88-35.38,1.276c-5.992,0.201-11.985,0.394-17.98,0.58
		c-0.116,3.712-0.232,7.424-0.348,11.136c-1.972-4.06-3.944-8.12-5.916-12.18c-4.679-0.348-9.357-0.696-14.036-1.044
		c-2.591,3.596-5.181,7.192-7.772,10.788c1.083-3.673,2.165-7.347,3.248-11.02c-1.451-0.022-3.579-0.039-6.148,0
		c-17.116,0.261-27.291,2.606-27.608,1.392C309.736,450.994,314.155,448.791,319.175,447.206z"/>
	<path style="clip-path:url(#SVGID_00000047025524439596570920000001060212046347229082_);fill:#B56630;" d="M354.612,554.016
		c2.221,7.684,3.598,16.495-0.696,20.184c-3.836,3.295-10.804,1.307-11.136,2.784c-0.442,1.966,12.007,4.982,11.832,6.96
		c-0.462,5.228-89.068,2.22-89.088-1.392c-0.013-2.38,38.447-2.272,38.976-8.352c0.598-6.865-47.812-14.125-47.328-18.792
		C257.516,552.088,282.533,550.823,354.612,554.016z"/>
	<path style="opacity:0.38;clip-path:url(#SVGID_00000047025524439596570920000001060212046347229082_);fill:#470918;" d="
		M389.746,363.114c-4.04,9.09-8.081,18.183-12.121,27.273c-4.04-1.009-8.08-2.018-12.121-3.031c-3.316,2.109-6.633,4.221-9.946,6.33
		c-11.387,0.327-20.08,0.411-26.079,0.254c-0.365-1.462-0.79-2.92-1.274-4.367c7.12-1.521,18.59-3.431,34.41-5.728
		c-18.392,0.581-30.554,0.717-36.484,0.4c-0.289-0.647-0.592-1.291-0.912-1.935c5.269-1.124,16.805-2.701,34.612-4.729
		c-18.987-0.957-31.95-1.775-38.893-2.45c-0.424-0.602-0.849-1.169-1.27-1.705c6.964-0.421,21.628-0.658,43.991-0.717
		c3.132-3.595,6.264-7.193,9.396-10.788c-15.726,2.631-19.707,1.768-20.184,0.348c-0.64-1.9,5.178-4.28,9.396-11.136
		c3.223-5.241,4.03-10.684,4.176-14.616c-34.995,1.343-52.51,1.691-52.548,1.044c-0.038-0.644,17.129-2.266,51.504-4.872
		c-0.348-3.247-0.696-6.497-1.044-9.744c-25.139-3.153-37.667-5.822-37.584-8.004c0.08-2.053,11.331-3.678,33.756-4.872
		c0.581-1.973,1.159-3.943,1.74-5.916c-14.498-2.763-21.691-5.084-21.576-6.96c0.132-2.161,9.946-3.731,29.437-4.708
		c-1.434,6.671-2.185,10.409-2.353,12.295c-0.56,6.358-2.164,28.017,11.362,46.97C383.054,357.236,387.154,360.973,389.746,363.114z
		"/>
	<path style="opacity:0.18;clip-path:url(#SVGID_00000047025524439596570920000001060212046347229082_);fill:#470918;" d="
		M499.537,360.876c-0.512,1.204-0.633,3.132,1.138,6.264c-6.428-1.023-12.859-2.043-19.286-3.066
		c-1.924-0.306-3.845-0.612-5.77-0.919v10.249c-3.793-0.191-7.59-0.379-11.387-0.571c3.985-16.321,7.973-32.646,11.957-48.967
		c10.008,0.324,19.074-5.154,22.777-13.666c0.616-1.409,1.04-2.808,1.309-4.179c0.003-0.004,0.003-0.007,0.003-0.01
		c0.981-4.966-0.049-9.553-1.364-12.991c-0.004-0.004-0.004-0.007-0.004-0.01c-1.034-2.69-2.238-4.674-2.791-5.585
		c-2.067-3.403-5.262-8.662-10.249-8.54c-3.946,0.094-7.74,3.522-9.681,8.54c-0.379-5.756-0.759-11.515-1.138-17.271
		c2.909-4.364,5.819-8.731,8.731-13.095v7.969c3.163,0.254,6.327,0.508,9.49,0.762c2.304,2.617,4.597,5.46,6.831,8.54
		c11.87,16.353,17.609,33.217,20.501,46.691c-4.938,0.188-9.873,0.379-14.807,0.567c0.191,3.417,0.379,6.835,0.571,10.252
		c-6.452-0.191-12.907-0.379-19.359-0.571l-7.402,7.402c1.855-0.021,3.685-0.035,5.495-0.049
		c24.969-0.188,45.094,0.143,45.181,1.757c0.104,1.942-28.825,4.91-43.73,6.904c-5.196,0.689-8.686,1.263-8.655,1.636
		c0.024,0.296,2.255,0.439,8.053,0.32c7.486-0.157,20.904-0.752,43.194-2.029c0.567,3.797,1.138,7.593,1.709,11.39
		C528.24,358.092,502.745,353.297,499.537,360.876z"/>
	<path style="opacity:0.38;clip-path:url(#SVGID_00000047025524439596570920000001060212046347229082_);fill:#470918;" d="
		M476.189,287.424c-0.379-5.756-0.759-11.515-1.138-17.271c2.909-4.364,5.819-8.731,8.731-13.095v2.335
		c-1.221,6.027-2.439,12.055-3.657,18.079c1.977-0.957,4.976-1.977,8.119-1.159c7.092,1.844,9.608,11.675,10.666,16.697
		c-1.034-2.69-2.238-4.674-2.791-5.585c-2.067-3.403-5.262-8.662-10.249-8.54C481.924,278.978,478.131,282.405,476.189,287.424z"/>
	<path style="opacity:0.38;clip-path:url(#SVGID_00000047025524439596570920000001060212046347229082_);fill:#470918;" d="
		M500.274,306.021c-0.244,5.46-1.806,11.508-6.696,15.764c-3.699,3.222-7.976,4.26-10.67,4.639c0.452,2.526,0.908,5.056,1.361,7.583
		l-4.663,4.663c1.855-0.021,3.685-0.035,5.495-0.049c0.505,2.819,1.013,5.634,1.517,8.449c-0.021,0.07-0.045,0.143-0.066,0.212
		c-5.196,0.689-8.686,1.263-8.655,1.636c0.024,0.296,2.255,0.439,8.053,0.32c-1.521,4.945-3.042,9.89-4.562,14.835
		c-1.924-0.306-3.845-0.612-5.77-0.919v10.249c-3.793-0.191-7.59-0.379-11.387-0.571c3.985-16.321,7.973-32.646,11.957-48.967
		c10.008,0.324,19.074-5.154,22.777-13.666C499.582,308.791,500.006,307.392,500.274,306.021z"/>
	<path style="opacity:0.18;clip-path:url(#SVGID_00000047025524439596570920000001060212046347229082_);fill:#470918;" d="
		M496.596,416.904v-19.488c-7.423-1.855-14.849-3.713-22.272-5.568v-18.792c17.132,2.676,34.261,5.356,51.393,8.028
		c-2.227,9.024-2.321,18.552-0.042,27.805c0.915,3.717,2.154,7.134,3.619,10.269C518.395,418.407,507.495,417.656,496.596,416.904z"
		/>
	<path style="opacity:0.37;clip-path:url(#SVGID_00000047025524439596570920000001060212046347229082_);fill:#470918;" d="
		M765.579,553.118c-0.25,11.366-0.505,22.731-0.755,34.097c-0.07,3.059-0.136,6.114-0.205,9.173
		c-10.51,0.265-21.019,0.529-31.525,0.793c-67.501-8.756-135.007-17.508-202.512-26.26c-1.375,0.334-2.749,0.672-4.124,1.006
		c-2.579-5.679-4.994-12.674-6.323-20.849c-1.274-7.833-1.288-15.107-0.619-21.569c0.372-3.664,0.967-7.071,1.67-10.169
		c1.587-6.977,3.731-12.403,5.213-15.761c0.355-3.487,0.71-6.974,1.068-10.461c0.32-3.146,0.64-6.295,0.964-9.441
		c0.191-1.893,0.386-3.783,0.578-5.676l-21.402-7.83c-1.075-0.759-3.595-2.763-4.698-6.264c-1.371-4.353-0.01-9.285,3.431-12.9
		c-1.803-1.138-4.315-3.101-6.264-6.264c-5.06-8.213-1.91-17.362-1.392-18.792c10.471-1.712,20.943-3.428,31.414-5.14
		c10.301,20.236,30.043,28.15,32.117,28.943c25.48,2.405,50.961,4.806,76.442,7.211c1.601,5.93,3.205,11.86,4.806,17.79
		c7.054,0.8,14.104,1.601,21.155,2.401c2.565,3.849,5.13,7.694,7.691,11.54c2.085,0.96,4.169,1.924,6.254,2.885
		c2.081,4.005,4.166,8.011,6.25,12.02c0.157-5.93,0.32-11.86,0.48-17.79c2.561-0.32,5.126-0.64,7.691-0.96
		c2.245-3.045,4.486-6.09,6.73-9.135c11.059,2.405,22.115,4.806,33.175,7.211v12.98c3.845,1.604,7.691,3.205,11.536,4.809
		c-0.16,5.45-0.32,10.896-0.48,16.346h6.73c-0.08,6.57-0.16,13.141-0.24,19.711c1.59-1.688,4.239-1.549,5.53,0
		c1.152,1.382,1.027,3.658-0.48,5.049c2.321,0.08,4.646,0.16,6.971,0.24C763.495,545.747,764.539,549.433,765.579,553.118z"/>
	<path style="opacity:0.48;clip-path:url(#SVGID_00000047025524439596570920000001060212046347229082_);fill:#D68147;" d="
		M642.408,470.496c17.516,2.146,35.032,4.292,52.548,6.438c-0.464,2.668-0.928,5.336-1.392,8.004
		c-17.226-2.61-34.452-5.22-51.678-7.83C642.06,474.904,642.234,472.7,642.408,470.496z"/>
	<g style="clip-path:url(#SVGID_00000047025524439596570920000001060212046347229082_);">
		<path style="fill:#D68147;" d="M286.289,752.56c-39.669,5.916-79.337,11.832-119.009,17.748
			c-10.614-13.697-21.736-28.908-32.361-42.654c-0.177-0.226-0.348-0.449-0.522-0.672c-1.054-3.762,20.522-13.854,64.725-30.273
			c14.438,0.348,28.88,0.696,43.322,1.044c10.638,6.285,21.277,12.573,31.915,18.858c0.351,0.532,0.675,1.034,0.971,1.5
			c0.077,0.237,0.15,0.477,0.226,0.713C279.134,730.069,282.712,741.313,286.289,752.56z"/>
		<path style="fill:#F26533;" d="M276.897,718.112c-0.4,0.216-0.849,0.452-1.34,0.713c-16.885,8.971-85.796,44.38-102.013,25.383
			c-2.735-3.205-4.621-8.717-2.61-18.792c-21.371,3.369-33.373,4.113-36.014,2.238c-0.278-0.191-0.452-0.418-0.522-0.672
			c-1.054-3.762,20.522-13.854,64.725-30.273c14.438,0.348,28.88,0.696,43.322,1.044c10.638,6.285,21.277,12.573,31.915,18.858
			C275.205,717.113,276.051,717.611,276.897,718.112z"/>
	</g>
	<path style="opacity:0.39;clip-path:url(#SVGID_00000047025524439596570920000001060212046347229082_);fill:#470918;" d="
		M752.303,591.214c-2.064,1.778-4.277,3.664-6.629,5.651c-4.193,0.104-8.387,0.212-12.58,0.317
		c-53.275,1.336-106.551,2.676-159.822,4.013c-0.64,9.619-1.281,19.23-1.921,28.849c-31.09,2.561-62.181,5.126-93.271,7.691
		c-9.055,2.648-18.11,5.3-27.165,7.952c-4.086,1.194-8.171,2.391-12.257,3.588c1.437,14.08,2.875,28.157,4.312,42.237
		c0.167,1.625,0.331,3.25,0.498,4.875c-0.96,0.063-1.917,0.125-2.878,0.188c-13.784,0.901-27.572,1.799-41.353,2.697
		c-1.778-0.849-3.556-1.702-5.335-2.551c-3.135-1.5-6.267-3-9.4-4.496c-9.006-18.246-9.118-34.163-1.813-40.451
		c1.705-1.469,5.54-3.898,13.572-3.132c35.848-11.484,71.695-22.971,107.543-34.456c9.052-5.916,18.099-11.832,27.147-17.751
		c-48.375,6.205-72.739,8.293-73.087,6.267c-0.341-1.984,22.282-7.9,67.867-17.751l96.058-9.396
		C665.292,580.774,708.796,585.994,752.303,591.214z"/>
	<path style="clip-path:url(#SVGID_00000047025524439596570920000001060212046347229082_);fill:#D68147;" d="M546.757,714.458
		c-2.332,1.263-4.663,2.53-6.995,3.797c-9.619,5.217-19.237,10.433-28.856,15.653c-24.938,13.523-49.872,27.05-74.81,40.577
		c-36.189,1.044-72.38,2.088-108.569,3.132l-1.566-9.918c-25.404-2.088-50.805-4.176-76.209-6.264
		c-5.338-13.878-10.677-27.76-16.015-41.638c-3.351-8.707-6.699-17.41-10.047-26.117c-0.01-0.028-0.021-0.052-0.031-0.08
		c0-0.007-0.004-0.014-0.007-0.021c0.024-0.007,0.049-0.01,0.073-0.017c10.068-2.429,20.135-4.862,30.203-7.291
		c35.319-0.174,70.641-0.348,105.959-0.522l-5.22-16.182c39.042-0.985,78.077-1.97,117.119-2.951
		c2.37-0.063,4.743-0.122,7.113-0.181c0.184,0.129,0.365,0.261,0.55,0.39C501.882,682.703,524.321,698.579,546.757,714.458z"/>
	<g style="clip-path:url(#SVGID_00000047025524439596570920000001060212046347229082_);">
		<g>
			<path style="fill:#D68147;" d="M163.661,750.472c-0.007,0.108-0.014,0.216-0.024,0.324c-0.014,0.237-0.031,0.477-0.049,0.713
				c-0.459,6.389-0.915,12.772-1.371,19.157c-10.151,0.658-20.302,1.319-30.453,1.977c-5.227,0.341-10.457,0.679-15.684,1.02
				c-21.677,1.406-43.357,2.815-65.034,4.221h-0.017c-15.065,0.981-30.126,1.959-45.191,2.937c-3.4,0.219-6.803,0.442-10.203,0.661
				c-0.066-9.48-0.132-18.963-0.198-28.442c-0.15-21.381-0.296-42.762-0.445-64.14c-0.024-3.755-0.052-7.506-0.077-11.261
				c45.383,2.878,90.772,5.753,136.155,8.63c3.758,0.24,7.517,0.477,11.275,0.717c0.042,0,0.084,0.003,0.125,0.007
				c0.094,0.007,0.185,0.01,0.278,0.017c0.035,0.365,0.073,0.731,0.108,1.096c1.646,16.704,3.292,33.404,4.942,50.108
				C153.082,742.301,158.371,746.387,163.661,750.472z"/>
			<path style="opacity:0.71;fill:#5B091B;" d="M68.949,722.831c-3.584,6.859-7.172,13.715-10.757,20.574
				c-0.101,0.191-0.202,0.386-0.303,0.578c-0.8,11.06-1.601,22.115-2.401,33.175c-1.483,0.244-2.962,0.484-4.444,0.727h-0.017
				c-15.065,0.981-30.126,1.959-45.191,2.937c0.699-9.118,1.399-18.232,2.102-27.349c0.303-3.964,0.609-7.927,0.915-11.891
				c10.576,0.16,21.152,0.32,31.731,0.48c-1.284-3.525-2.565-7.05-3.845-10.579c4.646-2.241,9.295-4.486,13.941-6.73v-30.767
				L68.949,722.831z"/>
			<path style="fill:#F26533;" d="M140.592,689.04c-0.101,2.384-29.448,3.543-88.044,3.48c-1.625,1.392-3.247,2.784-4.872,4.176
				c-17.56-2.6-35.124-5.196-52.687-7.795c-0.024-3.755-0.052-7.506-0.077-11.261c45.383,2.878,90.772,5.753,136.155,8.63
				C137.45,687.328,140.623,688.25,140.592,689.04z"/>
			<path style="opacity:0.37;fill:#5B091B;" d="M132.821,758.177c-0.355,4.823-0.706,9.643-1.058,14.466
				c-5.227,0.341-10.457,0.679-15.684,1.02c1.636-5.084,3.271-10.169,4.91-15.256c-3.713-7.113-7.426-14.23-11.136-21.343H90.595
				c5.725-1.159,11.446-2.321,17.17-3.48c0.456-2.036,0.915-4.072,1.371-6.107c1.089-4.848,2.178-9.695,3.268-14.539
				c-1.545-7.04-3.094-14.077-4.639-21.113c4.176-0.077,8.352-0.153,12.528-0.233c-1.865,6.866-3.567,14.884-4.642,23.897
				c-0.473,3.992-0.783,7.813-0.96,11.442c-0.16,3.226-0.216,6.299-0.198,9.205C120.603,743.481,126.71,750.831,132.821,758.177z"/>
			<path style="fill:#F26533;" d="M163.661,750.472c-0.024,0.345-0.049,0.693-0.073,1.037c-6.622-4.702-13.241-9.396-19.864-14.098
				c-0.459-16.808-0.922-33.617-1.382-50.425c-0.003-0.129-0.007-0.254-0.01-0.383c0.045,0.129,0.09,0.261,0.136,0.39
				c0.129,0.372,0.258,0.741,0.386,1.114c1.646,16.704,3.292,33.404,4.942,50.108C153.082,742.301,158.371,746.387,163.661,750.472z
				"/>
			<path style="opacity:0.35;fill:#A0002A;" d="M163.637,750.796c-0.014,0.237-0.031,0.477-0.049,0.713
				c-0.459,6.389-0.915,12.772-1.371,19.157c-10.151,0.658-20.302,1.319-30.453,1.977c-5.227,0.341-10.457,0.679-15.684,1.02
				c-21.677,1.406-43.357,2.815-65.034,4.221h-0.017c-15.065,0.981-30.126,1.959-45.191,2.937c-3.4,0.219-6.803,0.442-10.203,0.661
				c-0.066-9.48-0.132-18.963-0.198-28.442c3.745,0.292,7.941,0.473,12.504,0.432c12.98-0.122,28.94-2.067,46.002-8.404
				c1.451-0.539,2.868-1.093,4.253-1.663c9.859-4.054,18.065-8.818,24.631-13.301c8.115-0.821,16.238-1.632,24.36-2.436
				c0.651-0.063,1.301-0.129,1.952-0.191c1.851-0.184,3.703-0.365,5.554-0.546c7.012-0.689,14.021-1.371,21.03-2.046
				c2.321,5.105,4.639,10.207,6.96,15.312c5.756,2.913,11.519,5.822,17.278,8.738c0.003,0,0.003,0.003,0.007,0.003
				C161.19,749.557,162.412,750.177,163.637,750.796z"/>
		</g>
		<path style="opacity:0.43;fill:#F26533;" d="M-11.136,691.824c19.604,3.48,39.208,6.96,58.812,10.44
			c0.696,6.496,1.392,12.992,2.088,19.488c-6.844,1.624-13.688,3.248-20.532,4.872c-13.456-0.928-26.912-1.856-40.368-2.784
			C-11.136,713.168-11.136,702.496-11.136,691.824z"/>
	</g>
	<g style="clip-path:url(#SVGID_00000047025524439596570920000001060212046347229082_);">
		<path style="fill:#F26533;" d="M415.86,679.759c-15.389-1.469-30.777-2.937-46.169-4.406c0.853,4.176,1.702,8.352,2.554,12.528
			c11.056,1.778,22.115,3.556,33.175,5.335c-20.57,1.315-41.141,2.631-61.711,3.943c-17.866,1.082-35.729,2.168-53.592,3.25
			c3.532,28.397,5.077,42.627,4.639,42.686c-0.439,0.063-2.836-13.857-7.193-41.76c-10.207-2.784-20.414-5.568-30.624-8.352
			c8.248,16.899,12.114,25.481,11.602,25.752c-0.522,0.275-5.547-7.997-15.082-24.823c-9.921-0.077-19.843-0.153-29.768-0.233h-0.16
			c0.042-0.028,0.087-0.052,0.129-0.08c0.021-0.01,0.042-0.024,0.066-0.038c10.068-2.429,20.135-4.862,30.203-7.291
			c35.319-0.174,70.641-0.348,105.959-0.522l-5.22-16.182c39.042-0.985,78.077-1.97,117.119-2.951
			C453.145,670.996,434.502,675.378,415.86,679.759z"/>
		<path style="opacity:0.35;fill:#A0002A;" d="M539.762,718.255c-34.556,18.74-69.109,37.483-103.666,56.23
			c-36.189,1.044-72.38,2.088-108.569,3.132l-1.566-9.918c-25.404-2.088-50.805-4.176-76.209-6.264
			c-5.338-13.878-10.677-27.76-16.015-41.638c0.341-4.037,1.507-6.803,3.487-7.948c6.536-3.776,23.911,9.041,40.716,31.317
			c-0.313-21.524,0.905-32.486,3.651-32.883c3.024-0.439,7.896,11.915,14.616,37.058c0.348-14.616,0.696-29.229,1.044-43.844
			c38.454,10.614,76.905,21.224,115.358,31.839c12.177,2.262,24.357,4.524,36.536,6.786c-24.367-28.919-33.763-47.359-28.188-55.329
			C429.049,675.231,468.648,685.72,539.762,718.255z"/>
		<path style="opacity:0.37;fill:#5B091B;" d="M223.648,693.564c2.745,1.585,5.491,3.171,8.236,4.756
			c-0.193-1.585-0.387-3.171-0.58-4.756c4.176-1.16,8.352-2.32,12.528-3.48C237.104,691.244,230.376,692.404,223.648,693.564z"/>
		<path style="opacity:0.37;fill:#5B091B;" d="M405.246,693.39c5.8,9.28,11.6,18.56,17.4,27.84
			c-4.234-9.628-8.468-19.256-12.702-28.884c1.624-3.074,3.248-6.148,4.872-9.222C411.626,686.546,408.436,689.968,405.246,693.39z"
			/>
		<path style="opacity:0.65;fill:#5B091B;" d="M405.768,725.232c-3.164-18.175-4.385-29.468-5.22-29.406
			c-0.916,0.068-1.195,13.777,1.914,76.734c-7.018-2.32-14.036-4.64-21.054-6.96c0.249-41.248-0.273-61.896-1.566-61.944
			c-1.259-0.047-3.106,17.992-3.828,29.928c-1.029,17.02-0.353,31.267,0.522,41.412c13.398,0.522,26.796,1.044,40.194,1.566
			C413.711,764.698,409.565,747.044,405.768,725.232z"/>
		<path style="opacity:0.5;fill:#5B091B;" d="M546.757,714.458c-2.332,1.263-4.663,2.53-6.995,3.797
			c-9.619,5.217-19.237,10.433-28.856,15.653c-19.464-11.71-38.924-23.417-58.391-35.124c4.521,10.607,5.913,16.485,4.176,17.633
			c-2.927,1.935-14.759-9.587-35.496-34.57c19.418-5.008,38.837-10.019,58.255-15.023
			C501.882,682.703,524.321,698.579,546.757,714.458z"/>
	</g>
	<path style="opacity:0.45;clip-path:url(#SVGID_00000047025524439596570920000001060212046347229082_);fill:#FFBD17;" d="
		M777.78,527.568c0.33,6.94,160.065,13.983,339.648-4.176c73.794-7.462,106.191-14.654,231.072-26.448
		c86.393-8.159,147.651-11.966,147.552-13.92c-0.194-3.813-233.629,6.853-233.856,2.784c-0.281-5.033,356.65-26.011,356.352-32.016
		c-0.217-4.375-189.922,1.65-317.376,6.96c-189.245,7.885-349.563,18.708-349.392,23.664c0.131,3.797,94.333,1.185,94.656,6.96
		C1046.983,501.156,777.349,518.528,777.78,527.568z"/>
	<path style="opacity:0.18;clip-path:url(#SVGID_00000047025524439596570920000001060212046347229082_);fill:#470918;" d="
		M784.883,690.487c220.465-6.424,346.247-7.652,346.539-2.088c0.359,6.859-190.231,17.796-189.97,29.226
		c0.332,14.564,310.48,17.869,396.641,18.788c137.858,1.471,258.826-1.419,258.86,0c0.082,3.386-688.279,14.274-688.902,45.927
		c-0.239,12.15,100.977,21.084,100.204,29.226c-1.31,13.791-292.321-4.974-292.261-6.263c0.042-0.916,146.986,7.89,148.787-6.296
		c1.06-8.353-49.216-16.635-48.72-26.448c0.549-10.859,63.098-20.291,246.384-25.056c-132.704,2.784-265.408,5.568-398.112,8.352
		C704.516,734.066,744.699,712.277,784.883,690.487z"/>
	<path style="opacity:0.58;clip-path:url(#SVGID_00000047025524439596570920000001060212046347229082_);fill:#470918;" d="
		M1740.348,635.463c-58.129-3.061-124.099-4.653-190.159-2.536c-40.018,1.282-78.515,3.608-115.384,6.731
		c-10.516-1.874-22.462-3.088-35.577-2.885c-46.865,0.726-82.948,19.151-102.883,31.731c-0.641-19.551-1.282-39.102-1.923-58.654
		c22.817,0.868,127.815,4.881,150.63,5.757l0.33,0.013c-0.681-2.885-1.362-5.769-2.043-8.654
		c26.082-0.481,52.163-0.962,78.245-1.442c0.481-2.044,0.961-4.086,1.442-6.13c73.557,1.082,147.115,2.163,220.672,3.245
		C1741.373,613.375,1742.672,624.726,1740.348,635.463z"/>
	<g style="clip-path:url(#SVGID_00000047025524439596570920000001060212046347229082_);">
		<g>
			<path style="fill:#F7CC8F;" d="M862.692,655.04v14.425c-2.746,1.719-5.488,3.438-8.234,5.161
				c-21.291,13.342-42.588,26.685-63.879,40.031v17.306c-27.436,23.849-54.869,47.697-82.305,71.545
				c-21.604,18.782-43.208,37.56-64.812,56.338c-32.294,0.198-64.589,0.393-96.887,0.588c-0.014,0.004-0.028,0.004-0.042,0.004
				c-120.961,0.738-241.923,1.472-362.887,2.206c-4.74,0.028-9.48,0.059-14.219,0.087c60.9-24.677,121.796-49.357,182.693-74.037
				c-0.017-0.334-0.035-0.668-0.052-1.002c-0.289-5.47-0.574-10.938-0.863-16.408c-0.014-0.285-0.031-0.574-0.045-0.859
				c6.41-1.281,12.82-2.561,19.23-3.845c0.035-0.47,0.066-0.94,0.101-1.409c0.285-4.016,0.574-8.035,0.86-12.051
				c1.691-0.529,3.379-1.058,5.07-1.587c82.344-25.763,164.691-51.525,247.035-77.284c10.391-3.254,20.783-6.504,31.174-9.754
				c20.316-6.355,40.632-12.713,60.949-19.067C764.619,648.63,813.655,651.835,862.692,655.04z"/>
			<path style="opacity:0.7;fill:#5B091B;" d="M710.964,803.626c-0.379-0.017-0.762-0.035-1.141-0.049
				c0.379,0.101,0.762,0.202,1.141,0.303c-21.343,20.184-42.689,40.368-64.032,60.552h-40.368
				c30.359-20.466,60.722-40.928,91.082-61.398c-115.191-5.112-230.386-10.231-345.578-15.343
				c-0.289-5.47-0.574-10.938-0.863-16.408c119.11,5.676,238.213,11.355,357.323,17.031c1.044-2.551,2.088-5.105,3.132-7.656
				c-113.681-5.105-227.359-10.207-341.04-15.312c-0.042-0.059-0.087-0.118-0.129-0.177c0.285-4.016,0.574-8.035,0.86-12.051
				c1.691-0.529,3.379-1.058,5.07-1.587c111.979,3.908,223.955,7.82,335.935,11.728c45.473-30.857,90.943-61.711,136.416-92.568
				c1.897,1.312,3.79,2.624,5.686,3.936c1.121,0.776,2.241,1.552,3.362,2.328C808.867,719.177,759.917,761.403,710.964,803.626z"/>
		</g>
		<path style="opacity:0.27;fill:#FFD9A1;" d="M689.656,686.228c0.268,6.779,106.881,4.019,107.542,12.528
			c0.491,6.316-57.465,17.72-204.645,36.543c39.328,5.919,78.655,11.835,117.983,17.751c-54.64,1.044-109.283,2.088-163.922,3.132
			c8.846,5.923,17.696,11.846,26.542,17.769c-4.524,2.551-9.048,5.105-13.572,7.656l28.188,15.66
			c60.496,7.555,90.658,14.167,90.48,19.836c-0.32,10.322-101.237,17.515-302.76,21.576c-0.066,0-0.097,0.003-0.097,0.007
			c-0.014,0.334,251.315,7.785,251.353,14.609c0.014,2.304-28.647,4.698-80.172,7.137c-0.014,0.004-0.028,0.004-0.042,0.004
			c-80.402,3.814-216.453,7.746-386.106,11.651c7.74-3.149,15.479-6.295,23.219-9.445c60.702-24.691,121.4-49.385,182.101-74.075
			V772.56c9.977-2.551,19.951-5.105,29.928-7.656c-0.233-3.713-0.463-7.423-0.696-11.136
			c80.969-26.215,161.935-52.433,242.904-78.648c-4.809-0.292-9.619-0.585-14.428-0.873c10.391-3.254,20.783-6.504,31.174-9.754
			c94.614-1.507,154.957-1.246,155.097,1.897C809.925,670.836,689.371,679.014,689.656,686.228z"/>
		<path style="opacity:0.12;fill:#5B091B;" d="M398.515,747.863c108.57-34.276,217.141-68.552,325.712-102.829
			c-0.419,1.039-0.838,2.077-1.257,3.116c-107.358,34.394-214.716,68.788-322.074,103.182
			C400.102,750.176,399.309,749.019,398.515,747.863z"/>
		<path style="opacity:0.46;fill:#5B091B;" d="M196.511,858.521c56.373-23.489,112.746-46.977,169.12-70.466
			c-51.849,23.837-103.699,47.674-155.548,71.51C205.559,859.217,201.035,858.869,196.511,858.521z"/>
		<path style="opacity:0.27;fill:#5B091B;" d="M852.632,661.215c-38.305,6.343-59.768,11.038-59.505,13.571
			c0.308,2.965,30.271,2.097,30.275,2.61c0.006,0.97-107.414,0.877-107.527,4.176c-0.089,2.606,44.883,8.076,90.823,8.352
			c2.815,0.017,5.284,0.012,7.308,0c-20.183,13.571-40.366,27.143-60.549,40.714c-58.428-0.034-87.656,0.662-87.692,2.088
			c-0.033,1.304,24.328,3.218,73.076,5.742c-9.743,7.134-19.487,14.267-29.23,21.401c1.044,6.612,2.088,13.223,3.132,19.835
			c-1.392,2.958-2.784,5.916-4.176,8.873c0.87,4.698,1.74,9.396,2.61,14.093c71.425-59.88,105.699-91.718,102.829-95.521
			c-2.585-3.425-35.297,15.89-98.131,57.939C761.461,730.464,807.047,695.839,852.632,661.215z"/>
	</g>
	<g style="clip-path:url(#SVGID_00000047025524439596570920000001060212046347229082_);">
		<path style="fill:#D68147;" d="M1269.166,507.234c-18.093,2.958-36.188,5.916-54.284,8.871v57.42
			c-27.84,13.221-55.677,26.445-83.517,39.669c-18.963-1.044-37.928-2.088-56.895-3.132c-0.491-5.269-0.981-10.534-1.469-15.803
			c-0.863-9.25-1.723-18.496-2.582-27.746c-0.042-0.445-0.084-0.894-0.125-1.34c16.008-0.696,32.016-1.392,48.021-2.088
			c6.09-18.444,12.18-36.888,18.27-55.328c22.098-1.218,44.196-2.436,66.29-3.654
			C1224.974,505.146,1247.072,506.19,1269.166,507.234z"/>
		<path style="fill:#743E04;" d="M1129.909,607.081c-1.062-4.246-2.123-8.492-3.185-12.739c5.839-0.265,11.677-0.531,17.516-0.796
			c0-9.023,0-18.046,0-27.069c22.027,1.592,44.054,3.185,66.081,4.777c-0.531-21.496-1.062-42.993-1.592-64.489
			c20.435,0,40.869,0,61.304,0c-2.654,20.7-5.308,41.4-7.962,62.1c5.839,0,11.677,0,17.515,0
			c-1.592,6.369-3.184,12.739-4.777,19.108c-8.492-0.531-16.985-1.062-25.477-1.592c-1.062-10.881-2.123-21.762-3.185-32.642
			c-3.981-2.123-7.962-4.246-11.943-6.369c-4.246-0.265-8.492-0.531-12.739-0.796c-0.796,15.923-1.592,31.846-2.388,47.769
			c-16.72,0-33.439,0-50.158,0c0,4.512,0,9.023,0,13.535C1155.917,607.612,1142.913,607.346,1129.909,607.081z"/>
		<path style="opacity:0.38;fill:#EBB35E;" d="M1140.396,591.948c-0.004,0.87-22.47,1.639-67.394,2.311
			c-0.863-9.25-1.723-18.496-2.582-27.746c45.678-0.003,68.542,0.703,68.584,2.119c0.038,1.277-18.521,3.135-55.68,5.568
			c6.845,5.22,13.687,10.44,20.532,15.66C1128.216,590.612,1140.396,591.308,1140.396,591.948z"/>
		<path style="opacity:0.3;fill:#EBB35E;" d="M1139.7,509.124c21.924,0,43.848,0,65.772,0c-21.228,1.624-42.456,3.248-63.684,4.872
			c-12.664,32.457-19.276,48.58-19.836,48.372C1121.371,562.153,1127.288,544.403,1139.7,509.124z"/>
	</g>
	<g style="clip-path:url(#SVGID_00000047025524439596570920000001060212046347229082_);">
		<g>
			<path style="fill:#D68147;" d="M1688.719,601.375c-4.242-0.08-8.491-0.16-12.737-0.24c-41.729-0.79-83.447-1.58-125.172-2.366
				c-25.975-0.498-51.946-0.988-77.914-1.476c-7.945-0.153-15.89-0.303-23.835-0.452c-4.151-0.08-8.3-0.157-12.448-0.237
				c-0.024,0.084-0.049,0.164-0.073,0.247c-0.832,2.857-1.664,5.711-2.495,8.561c-25.689-0.974-51.375-1.956-77.064-2.934
				l-5.136,8.435c-19.739-0.543-39.477-1.093-59.216-1.639c-42.038-1.166-84.07-2.328-126.101-3.494
				c-0.859-4.037-1.712-8.077-2.572-12.11c16.986-0.463,33.979-0.919,50.965-1.382c1.117-0.028,2.231-0.063,3.348-0.087
				c-0.049-0.442-0.104-0.884-0.153-1.322c-0.313-2.714-0.623-5.429-0.936-8.147c-0.007-0.021-0.007-0.049-0.01-0.073
				c0.644,0.035,1.291,0.063,1.935,0.094c4.493,0.209,8.985,0.432,13.478,0.64v-9.539c7.461-0.122,14.922-0.244,22.383-0.369v-8.07
				c8.683,0.24,17.369,0.487,26.055,0.731c-0.021-0.275-0.049-0.557-0.073-0.832c-0.042-0.522-0.087-1.044-0.136-1.57
				c-0.177-2.011-0.352-4.023-0.522-6.038h17.978c0.014-0.359,0.024-0.71,0.042-1.068c0.017-0.435,0.035-0.863,0.049-1.298
				c0.094-2.269,0.188-4.535,0.278-6.81h17.243c-0.153-0.922-0.306-1.855-0.463-2.777c-0.209-1.277-0.425-2.551-0.637-3.828
				c3.181,0.122,6.361,0.244,9.546,0.369c-0.028-0.202-0.056-0.407-0.083-0.609c-0.094-0.706-0.188-1.409-0.282-2.109
				c-0.369-2.763-0.738-5.533-1.107-8.289h12.11c-0.021-0.205-0.045-0.414-0.066-0.616c-0.045-0.435-0.087-0.867-0.132-1.302
				c-0.303-2.909-0.599-5.818-0.901-8.728c4.353-0.132,8.707-0.265,13.06-0.397c0.007-0.045,0.007-0.087,0.01-0.132
				c0.073-0.842,0.139-1.684,0.209-2.526c0.205-2.419,0.404-4.834,0.605-7.249h28.073c-0.014-0.101-0.038-0.195-0.052-0.292
				c-0.16-0.853-0.32-1.712-0.48-2.565c-0.651-3.452-1.294-6.904-1.942-10.353c29.162,0.571,58.325,1.145,87.487,1.716
				c12.942,0.254,25.888,0.508,38.83,0.759c1.49,3.16,2.983,6.327,4.468,9.49c0.578,1.221,1.152,2.443,1.726,3.664
				c0.609,1.291,1.218,2.579,1.823,3.866c0.042,0.087,0.08,0.17,0.122,0.258c4.127,0.094,8.258,0.185,12.385,0.278
				c0.226,1.145,0.456,2.293,0.689,3.438c0.101,0.522,0.205,1.041,0.31,1.563h0.004c0.122,0.626,0.247,1.253,0.372,1.879
				c5.324-0.094,10.642-0.185,15.963-0.275v10.457c5.411-0.275,10.829-0.55,16.241-0.825c0.031,1.521,0.063,3.042,0.09,4.559
				c0.031,1.479,0.059,2.954,0.091,4.433c0.031,1.496,0.063,2.996,0.094,4.493h14.585v7.98c5.411,0.278,10.83,0.553,16.241,0.828
				v8.255h6.052c-0.077,3.16-0.153,6.327-0.23,9.49c-0.017,0.602-0.028,1.197-0.046,1.796c1.834,0.369,3.672,0.731,5.506,1.1
				c0.007,0.035,0.007,0.063,0.01,0.094c0.153,1.423,0.306,2.843,0.459,4.263c0.136,1.246,0.271,2.488,0.404,3.734
				c0.038,0.348,0.077,0.699,0.115,1.047c0.035,0.348,0.073,0.696,0.111,1.047c14.588-0.31,29.177-0.612,43.761-0.922
				c0.86,1.841,1.712,3.671,2.572,5.505c14.432,0.613,28.867,1.228,43.298,1.837C1687.494,595.752,1688.11,598.563,1688.719,601.375
				z"/>
			<path style="opacity:0.58;fill:#470918;" d="M1472.896,597.293c-7.945-0.153-15.89-0.303-23.835-0.452
				c-4.151-0.08-8.3-0.157-12.448-0.237c-0.024,0.084-0.049,0.164-0.073,0.247c-0.832,2.857-1.664,5.711-2.495,8.561
				c-25.689-0.974-51.375-1.956-77.064-2.934l-5.136,8.435c-19.739-0.543-39.477-1.093-59.216-1.639
				c-0.323-4.343-0.644-8.69-0.971-13.033c9.42,0.609,18.844,1.221,28.261,1.831v-11.007c10.642,0.122,21.28,0.24,31.926,0.369
				c0.365-3.793,0.734-7.586,1.103-11.38l24.952,1.834c0.609-3.424,1.221-6.849,1.83-10.273h16.151v-11.007
				c5.38,0.491,10.764,0.974,16.147,1.465c0.487-3.793,0.978-7.58,1.469-11.373h10.638c-0.24-3.793-0.487-7.586-0.731-11.38
				c3.303-0.122,6.605-0.24,9.908-0.369c0.491-3.055,0.974-6.114,1.465-9.17c3.059-0.86,6.114-1.712,9.177-2.572
				c1.1,2.694,2.199,5.384,3.303,8.077v6.236c2.69,1.469,5.383,2.934,8.073,4.402c-0.609,4.527-1.228,9.052-1.837,13.582
				c4.649,6.967,9.295,13.941,13.948,20.915C1469.256,583.377,1471.072,590.34,1472.896,597.293z"/>
			<path style="opacity:0.58;fill:#470918;" d="M1688.72,601.376c-4.244-0.083-8.493-0.16-12.737-0.242
				c-41.73-0.787-83.448-1.58-125.172-2.367c0.099-5.004,0.198-10.007,0.297-15.005c-3.06-0.611-6.115-1.222-9.176-1.833
				c0.121-3.914,0.242-7.833,0.369-11.746c-3.55-0.242-7.095-0.49-10.646-0.732c0.369-3.424,0.738-6.848,1.101-10.277
				c-2.934-0.121-5.868-0.242-8.807-0.363c0.127-3.429,0.248-6.853,0.369-10.277h-11.009c0.611-2.934,1.222-5.873,1.833-8.807
				c-7.58-0.49-15.165-0.98-22.75-1.47c-0.49-3.545-0.98-7.095-1.47-10.64c-6.969-0.369-13.943-0.732-20.917-1.101v-5.873
				c-3.055-0.732-6.115-1.464-9.17-2.202v-19.596c12.941,0.253,25.888,0.506,38.829,0.76c1.492,3.16,2.983,6.325,4.47,9.49
				c1.15,2.444,2.301,4.882,3.451,7.326c0.077,0.154,0.149,0.308,0.22,0.462c4.128,0.094,8.257,0.182,12.385,0.275
				c0.33,1.668,0.666,3.336,1.002,5.003c0.127,0.628,0.248,1.25,0.374,1.877c5.323-0.094,10.64-0.182,15.963-0.275v10.458
				c5.411-0.275,10.827-0.55,16.238-0.826v0.127c0.066,2.956,0.121,5.912,0.182,8.868c0.033,1.497,0.061,2.995,0.094,4.492h14.587
				v7.982c5.411,0.275,10.827,0.55,16.238,0.826v8.257h6.055c-0.077,3.16-0.154,6.325-0.231,9.49
				c-0.016,0.6-0.027,1.194-0.044,1.794c1.833,0.369,3.671,0.732,5.504,1.101c0.006,0.033,0.006,0.061,0.011,0.094
				c0.286,2.67,0.573,5.334,0.864,7.998c0.077,0.699,0.149,1.393,0.226,2.092c14.587-0.308,29.174-0.611,43.761-0.919
				c0.859,1.839,1.712,3.672,2.571,5.505c14.433,0.611,28.865,1.228,43.298,1.838
				C1687.493,595.751,1688.109,598.563,1688.72,601.376z"/>
			<path style="fill:#470918;" d="M1217.178,582.733c-0.005-0.022-0.005-0.049-0.011-0.072c0.644,0.033,1.294,0.061,1.938,0.094
				C1218.466,582.744,1217.822,582.744,1217.178,582.733z"/>
			<path style="opacity:0.18;fill:#470918;" d="M1218.114,590.879c71.916,2.026,88.782,2.642,88.776,2.791
				c-0.005,0.209-33.99-0.572-91.969-1.382c1.117-0.027,2.229-0.06,3.347-0.088C1218.218,591.76,1218.163,591.32,1218.114,590.879z"
				/>
			<path style="opacity:0.18;fill:#470918;" d="M1232.579,580.03c66.604,1.47,99.912,2.433,99.907,2.906
				c-0.006,0.473-33.308,0.446-99.907-0.077V580.03z"/>
			<path style="opacity:0.18;fill:#470918;" d="M1254.966,572.015c59.036,2.13,88.534,3.292,88.529,3.49
				c-0.006,0.198-29.521-0.561-88.529-2.284V572.015z"/>
			<path style="opacity:0.18;fill:#470918;" d="M1280.81,563.748c63.445,1.701,95.167,2.692,95.162,2.95
				c-0.006,0.259-31.678-0.198-95.024-1.382C1280.903,564.793,1280.859,564.271,1280.81,563.748z"/>
			<path style="opacity:0.18;fill:#470918;" d="M1298.358,555.342c62.03,2.4,93.031,3.71,93.026,3.925
				c-0.011,0.22-31.034-0.655-93.075-2.626C1298.325,556.206,1298.342,555.777,1298.358,555.342z"/>
			<path style="opacity:0.18;fill:#470918;" d="M1408.723,550.185c-0.016,0.55-35.46-0.005-106.347-1.651h13.503
				c-0.154-0.925-0.308-1.855-0.462-2.78C1377.634,548.192,1408.74,549.673,1408.723,550.185z"/>
			<path style="opacity:0.18;fill:#470918;" d="M1323.96,539.577c63.12,1.58,94.677,2.554,94.672,2.901
				c-0.005,0.352-31.469,0.088-94.391-0.793C1324.147,540.981,1324.053,540.276,1323.96,539.577z"/>
			<path style="opacity:0.18;fill:#470918;" d="M1334.765,529.372c62.526,1.365,93.78,2.158,93.775,2.372
				c-0.005,0.215-31.222-0.143-93.642-1.073C1334.853,530.236,1334.809,529.807,1334.765,529.372z"/>
			<path style="opacity:0.18;fill:#470918;" d="M1455.236,509.451c-0.005,0.429-26.493,0.622-79.468,0.594
				c-0.16-0.853-0.319-1.712-0.479-2.565C1428.589,508.367,1455.242,509.027,1455.236,509.451z"/>
			<path style="opacity:0.18;fill:#470918;" d="M1347.145,517.587c62.905,2.229,94.341,3.556,94.33,3.974
				c-0.011,0.424-31.53-0.061-94.54-1.448C1347.007,519.271,1347.073,518.429,1347.145,517.587z"/>
			<path style="opacity:0.32;fill:#470918;" d="M1507.584,516.42c-14.053,0.061-28.111,0.121-42.164,0.187
				c5.769-2.708,14.411-5.945,25.321-7.156c4.789-0.534,9.275-0.595,13.393-0.358
				C1505.283,511.538,1506.433,513.976,1507.584,516.42z"/>
			<path style="opacity:0.18;fill:#470918;" d="M1537.528,524.369c-41.823,0.418-62.74,0.402-62.751-0.055
				c0-0.391,15.473-1.112,46.414-2.152c0.127,0.628,0.248,1.25,0.374,1.877c5.323-0.094,10.64-0.182,15.963-0.275V524.369z"/>
			<path style="opacity:0.32;fill:#470918;" d="M1553.767,533.522c-37.574,1.932-56.382,2.62-56.421,2.075
				c0-0.462,13.393-1.805,40.183-4.04v2.664c5.411-0.275,10.827-0.55,16.238-0.826V533.522z"/>
			<path style="opacity:0.32;fill:#470918;" d="M1514.41,546.331c0-0.793,13.178-2.103,39.539-3.941
				c0.033,1.497,0.061,2.995,0.094,4.492h14.587v0.055C1532.519,547.46,1514.448,547.251,1514.41,546.331z"/>
			<path style="opacity:0.32;fill:#470918;" d="M1584.867,556.229c-39.043,1.426-58.584,1.794-58.623,1.112
				c0-0.589,14.125-1.926,42.385-4.04v1.563c5.411,0.275,10.827,0.55,16.238,0.826V556.229z"/>
			<path style="opacity:0.18;fill:#470918;" d="M1587.949,563.946c-35.405,2.829-53.129,4.024-53.173,3.578
				c0-0.435,16.695-2.422,50.091-5.956v2.378H1587.949z"/>
			<path style="opacity:0.18;fill:#470918;" d="M1596.162,576.424c-34.992,2.923-52.518,4.084-52.579,3.484
				c-0.055-0.572,15.644-2.73,47.107-6.473c-0.016,0.6-0.027,1.194-0.044,1.794c1.833,0.369,3.671,0.732,5.504,1.101
				C1596.157,576.364,1596.157,576.391,1596.162,576.424z"/>
			<path style="opacity:0.32;fill:#470918;" d="M1688.72,601.376c-4.244-0.083-8.493-0.16-12.737-0.242
				c-1.475-1.756-2.945-3.507-4.42-5.262c-38.702,0.22-58.061,0.039-58.072-0.55c0-0.429,10.189-1.068,30.55-1.927
				c-1.833-1.927-3.672-3.853-5.505-5.78c-56.872-0.451-85.32-1.002-85.32-1.651c0-0.468,14.598-0.98,43.81-1.541
				c0.077,0.699,0.149,1.393,0.226,2.092c14.587-0.308,29.174-0.611,43.761-0.919c0.859,1.839,1.712,3.672,2.571,5.505
				c14.433,0.611,28.865,1.228,43.298,1.838C1687.493,595.751,1688.109,598.563,1688.72,601.376z"/>
			<path style="opacity:0.32;fill:#470918;" d="M1449.061,596.841c-4.151-0.08-8.3-0.157-12.448-0.237
				c-0.024,0.084-0.049,0.164-0.073,0.247c-0.007-0.052-0.014-0.101-0.021-0.153c-0.091-3.028-0.181-6.055-0.275-9.083
				c-1.65-1.284-3.302-2.568-4.952-3.852c1.284-3.487,2.568-6.974,3.852-10.461c2.203-15.778,4.402-31.557,6.605-47.339
				c-0.184,14.498-0.365,28.992-0.55,43.486C1443.821,578.581,1446.441,587.713,1449.061,596.841z"/>
		</g>
		<path style="opacity:0.38;fill:#D68147;" d="M1452.204,522.348c4.176,0,8.352,0,12.528,0c0.58,2.204,1.16,4.408,1.74,6.612
			c6.496,0.232,12.992,0.464,19.488,0.696c-0.116,3.364-0.232,6.728-0.348,10.092c-8.352,0.348-16.704,0.696-25.056,1.044
			c-0.232,3.828-0.464,7.656-0.696,11.484c18.908,0.58,37.816,1.16,56.724,1.74c-0.58,2.668-1.16,5.336-1.74,8.004
			c-18.908-0.58-37.816-1.16-56.724-1.74c-1.044-2.668-2.088-5.336-3.132-8.004c0.116-6.612,0.232-13.224,0.348-19.836
			c-1.624,0-3.248,0-4.872,0C1451.044,529.076,1451.624,525.712,1452.204,522.348z"/>
		<path style="fill:#FFBD6E;" d="M1167.192,595.776c39.208,0.464,78.416,0.928,117.624,1.392
			c-36.888,0.928-73.776,1.856-110.664,2.784c2.668,2.088,5.336,4.176,8.004,6.264c-4.64-0.232-9.28-0.464-13.92-0.696
			C1167.888,602.272,1167.54,599.024,1167.192,595.776z"/>
	</g>
	<path style="opacity:0.18;clip-path:url(#SVGID_00000047025524439596570920000001060212046347229082_);fill:#470918;" d="
		M579.691,589.985c3.372,0.097,6.741,0.195,10.113,0.292c-3.149,0.132-6.602,0.338-10.384,0.626L579.691,589.985z"/>
	<path style="opacity:0.18;clip-path:url(#SVGID_00000047025524439596570920000001060212046347229082_);fill:#470918;" d="
		M610.834,590.89c14.411,0.421,28.818,0.839,43.229,1.26c-4.649,0.961-9.295,2.269-13.742,3.974
		c-9.935,3.811-14.16,7.792-16.704,11.484c-6.187,8.982-4.66,19.509-5.916,19.488c-1.131-0.021-3.386-8.564-1.392-18.096
		c1.684-8.056,5.049-10.325,4.176-13.224C619.865,593.723,617.286,591.889,610.834,590.89z"/>
	<path style="opacity:0.7;clip-path:url(#SVGID_00000047025524439596570920000001060212046347229082_);fill:#D68147;" d="
		M298.817,570.915c-0.056,2.62-14.78,4.921-44.168,6.901c-3.045-4.858-4.333-10.583-3.619-16.161
		C282.948,565.093,298.88,568.176,298.817,570.915z"/>
	<path style="opacity:0.38;clip-path:url(#SVGID_00000047025524439596570920000001060212046347229082_);fill:#470918;" d="
		M546.234,470.173c17.225,0.348,34.45,0.696,51.675,1.044c-0.696,2.262-1.392,4.524-2.088,6.786
		c9.744,1.044,19.487,2.088,29.23,3.132c0,2.958,0,5.916,0,8.874c-15.833-1.566-31.666-3.132-47.5-4.698c0,2.958,0,5.916,0,8.874
		c-3.654,0-7.308,0-10.961,0c0.348,2.262,0.696,4.524,1.044,6.786c9.744,0.348,19.487,0.696,29.231,1.044
		c-1.044,3.48-2.088,6.96-3.132,10.439c-5.916-0.522-11.831-1.044-17.747-1.566c0.174,3.132,0.348,6.264,0.522,9.396
		c-3.48,0-6.96,0-10.44,0c1.392,5.916,2.784,11.831,4.176,17.747c21.923,2.436,43.846,4.872,65.769,7.308
		c-1.566,3.306-3.132,6.612-4.698,9.917c-19.835-1.392-39.67-2.784-59.505-4.176c0.522,5.046,1.044,10.091,1.566,15.137
		c11.135,3.48,22.271,6.96,33.406,10.44c-12.702,2.088-25.403,4.176-38.104,6.264c-10.787-1.74-21.575-3.48-32.362-5.22
		c2.784-13.223,5.568-26.447,8.352-39.67c-3.132-2.784-6.264-5.568-9.396-8.352c1.044-4.872,2.088-9.743,3.132-14.615
		c3.306-0.174,6.612-0.348,9.918-0.522c-0.174-3.48-0.348-6.96-0.522-10.439c4.002-0.348,8.004-0.696,12.005-1.044
		c-0.522-4.698-1.044-9.395-1.566-14.093c-4.35-0.696-8.7-1.392-13.049-2.088C545.538,481.308,545.886,475.741,546.234,470.173z"/>
	<g style="clip-path:url(#SVGID_00000047025524439596570920000001060212046347229082_);">
		<g>
			<path style="fill:#EFA759;" d="M1297.306,670.425c-5.338-0.31-10.673-0.623-16.011-0.933
				c-236.327-13.791-472.657-27.582-708.984-41.374c-1.281-12.82-2.565-25.641-3.845-38.461c3.741,0.108,7.485,0.219,11.226,0.327
				c0.258,0.007,0.512,0.014,0.769,0.021l9.344,0.271c7.009,0.205,14.021,0.411,21.03,0.612c14.411,0.421,28.818,0.839,43.229,1.26
				c13.836,0.4,27.673,0.804,41.51,1.208c82.772,2.408,165.547,4.816,248.319,7.228c96.73,2.812,193.46,5.627,290.19,8.442h0.004
				c20.431,0.595,40.866,1.19,61.297,1.785C1296.025,630.684,1296.665,650.555,1297.306,670.425z"/>
			<path style="opacity:0.7;fill:#D68147;" d="M871.044,608.478c-0.463,8.442-4.051,15.563-5.046,15.312
				c-1.535-0.39,4.427-17.978-1.392-21.576c-1.785-1.103-4.534-0.797-6.09,0.522c-2.923,2.481-0.72,7.753-0.174,16.356
				c0.713,11.247-1.904,20.393-2.436,20.358c-0.445-0.028,0.129-6.49-0.522-14.79c-0.807-10.297-3.128-18.722-5.22-24.708
				c-24.419,0.463-48.835,0.929-73.254,1.392l-8.874,15.66c-0.522,6.497-1.044,12.991-1.566,19.488
				c-0.407-6.786-0.811-13.572-1.218-20.358c1.392-5.161,2.784-10.325,4.176-15.486c-3.529,0.299-7.124,0.536-10.788,0.696
				c-25.331,1.114-48.497-1.521-68.904-5.916c-1.479,26.044-2.446,38.28-2.958,38.28c-0.512-0.017-0.588-12.312-0.174-38.454
				c-2.436,0.407-4.872,0.811-7.308,1.218c-7.019-0.811-14.035-1.625-21.054-2.436c-0.988,9.995-1.625,14.985-1.914,14.964
				c-0.289-0.021-0.23-5.008,0.174-14.964c-2.899-0.174-5.801-0.348-8.7-0.522c-1.427,21.388-2.098,28.031-2.394,28.031
				c-0.292-0.014-0.519-6.595-0.519-28.108c0-0.003-0.003-0.08-0.003-0.08c-17.397-0.348-34.797-0.696-52.197-1.044
				c-1.768,12.946-4.159,26.138-6.786,26.1c-3.146-0.049-7.694-19.06-5.443-28.407l9.344,0.271
				c7.009,0.205,14.021,0.411,21.03,0.612c14.411,0.421,28.818,0.839,43.229,1.26c13.836,0.4,27.673,0.804,41.51,1.208
				c58.22,1.695,116.441,3.389,174.658,5.084c0.212,1.43,0.424,2.864,0.64,4.294C871.044,604.246,871.169,606.206,871.044,608.478z"
				/>
			<path style="opacity:0.7;fill:#D68147;" d="M1234.718,617.864c-0.463,8.442-4.051,15.563-5.046,15.312
				c-1.277-0.324,2.631-12.542,0.637-18.716c-0.404-1.253-1.051-2.255-2.029-2.86c-1.785-1.103-4.534-0.797-6.09,0.522
				c-0.595,0.508-0.978,1.128-1.204,1.872c-0.891,2.899,0.595,7.635,1.03,14.484c0.713,11.247-1.903,20.393-2.436,20.358
				c-0.445-0.028,0.129-6.49-0.522-14.79c-0.626-7.983-2.161-14.842-3.797-20.313c-0.473-1.583-0.953-3.052-1.423-4.395
				c-21.513,0.407-43.02,0.818-64.533,1.225c-2.906,0.056-5.815,0.111-8.721,0.167l-8.874,15.66
				c-0.522,6.497-1.044,12.991-1.566,19.488c-0.407-6.786-0.811-13.572-1.218-20.358c1.392-5.161,2.784-10.325,4.176-15.486
				c-3.529,0.299-7.124,0.536-10.788,0.696c-2.968,0.132-5.909,0.209-8.818,0.24c-21.907,0.233-42.07-2.276-60.086-6.156
				c-0.139,2.481-0.278,4.837-0.407,7.071c-1.253,21.193-2.088,31.209-2.551,31.209c-0.463-0.017-0.571-10.082-0.278-31.365
				c0.031-2.238,0.066-4.6,0.104-7.089c-2.436,0.407-4.872,0.811-7.308,1.218c-7.019-0.811-14.035-1.625-21.054-2.436
				c-0.258,2.596-0.487,4.851-0.696,6.772c-0.598,5.478-1.006,8.206-1.218,8.192c-0.216-0.014-0.237-2.763-0.07-8.248
				c0.059-1.907,0.139-4.148,0.244-6.716c-2.899-0.174-5.801-0.348-8.7-0.522c-0.167,2.492-0.324,4.785-0.47,6.89
				c-1.11,15.956-1.663,21.141-1.924,21.141c-0.258-0.014-0.466-5.157-0.512-21.221c-0.003-2.102-0.007-4.395-0.007-6.887
				c0-0.003-0.003-0.08-0.003-0.08c-17.396-0.348-34.797-0.696-52.197-1.044c-1.768,12.946-4.159,26.138-6.786,26.1
				c-0.707-0.01-1.483-0.974-2.234-2.572c-1.409-2.982-2.742-8.164-3.393-13.443c-0.494-3.981-0.599-8.014-0.059-11.199
				c96.73,2.812,193.46,5.627,290.19,8.442h0.004c0.15,1.03,0.303,2.064,0.459,3.094c0.087,0.752,0.164,1.615,0.198,2.575
				C1234.781,615.661,1234.781,616.722,1234.718,617.864z"/>
			<path style="fill:#D3914F;" d="M1281.294,669.493c4.19-2.767,8.38-5.53,12.57-8.293c-0.233-6.727-0.463-13.457-0.696-20.184
				c-14.651-1.451-21.959-2.495-21.924-3.132c0.035-0.623,7.113-0.856,21.228-0.696c-1.159-6.264-2.321-12.528-3.48-18.792
				c-17.661-1.448-35.75-2.693-54.25-3.699c-1.475-0.084-2.951-0.16-4.433-0.237c-3.094-0.164-6.201-0.317-9.323-0.466
				c-0.877-0.042-1.757-0.08-2.638-0.122c-1.03-0.049-2.06-0.094-3.087-0.139c-17.052-0.759-33.773-1.284-50.157-1.601
				c0.463,1.625,0.929,3.247,1.392,4.872c1.646-0.693,5.022-1.824,9.048-1.044c5.345,1.037,9.984,5.081,9.396,6.612
				c-0.814,2.126-10.802-2.843-14.964,1.392c-3.619,3.682,1.58,9.817-1.044,19.836c-2.008,7.663-7.639,13.972-9.744,13.224
				c-2.279-0.807,0.661-9.493-0.696-24.36c-0.699-7.656-1.242-13.621-3.48-17.4c-1.308-2.213-3.222-3.72-5.707-4.701
				c-7.308-2.881-19.54-1.211-35.809,0.407c-8.804,0.88-18.796,1.74-29.824,1.858c-9.4,0.097-19.558-0.344-30.669-0.943
				c-0.936-0.052-1.879-0.104-2.829-0.157c-8.996-0.498-18.611-1.075-28.954-1.535c-0.428-0.021-0.856-0.038-1.288-0.056
				c-2.916-0.129-5.892-0.247-8.926-0.348c-0.807-0.028-1.618-0.056-2.436-0.08c-7.534-0.233-15.434-0.376-23.73-0.362
				c-5.283,0.01-13.77,0.136-21.228,5.568c-12.131,8.839-13.593,25.943-16.008,25.404c-1.608-0.358-1.315-8.021-0.696-12.528
				c0.122-0.884,0.268-1.74,0.435-2.565c1.072-5.3,2.979-9.406,4.437-12.051c-2.558-0.48-5.168-0.947-7.83-1.392
				c-21.552-3.602-46.427-5.919-73.95-5.22c-11.644,0.296-22.683,1.103-33.06,2.262c-8.425-3.946-15.789-5.161-20.532-5.568
				c-7.548-0.651-16.401-1.413-23.838,4.176c-3.692,2.774-5.794,6.184-6.96,8.526c8.422,1.726,12.598,2.829,12.528,3.306
				c-0.077,0.526-5.297,0.292-15.66-0.696c-0.386,12.044-0.926,14.95-1.392,14.964c-0.891,0.028-4.061-10.523-0.174-20.184
				c2.982-7.419,8.091-9.253,7.308-12.18c-1.329-4.966-17.383-4.694-28.188-4.524c-11.762,0.184-30.457,0.452-55.332,0.696
				c-0.929,1.74-1.855,3.48-2.784,5.22c8.724,0.891,13.071,1.528,13.05,1.914c-0.024,0.428-5.478,0.546-16.356,0.348
				c-0.268,0.745-0.546,1.827-0.522,3.132c0.052,2.843,1.503,4.841,2.088,5.568c19.251,2.634,27.906,4.197,27.84,4.872
				c-0.066,0.679-8.947,0.508-28.536-0.696c0.014,7.931-0.487,10.029-1.044,10.092c-1.458,0.16-6.88-13.266-2.088-24.36
				c1.768-4.093,3.459-4.475,3.132-6.264c-0.264-1.448-1.656-2.739-3.908-3.811c82.772,2.408,165.547,4.816,248.319,7.228
				c96.73,2.812,193.46,5.627,290.19,8.442h0.004c20.431,0.595,40.866,1.19,61.297,1.785c0.644,19.871,1.284,39.742,1.924,59.612
				C1291.967,670.116,1286.633,669.803,1281.294,669.493z"/>
		</g>
	</g>
	<path style="opacity:0.45;clip-path:url(#SVGID_00000047025524439596570920000001060212046347229082_);fill:#FFBD17;" d="
		M1507.188,666.768c-246.028,10.75-526.688,35.29-526.176,48.72c0.423,11.092,192.625,13.387,470.496,16.704
		c80.842,0.965,148.687,1.288,197.664,1.392c-461.002,10.509-691.614,23.965-691.824,40.368
		c-0.241,18.846,303.686,41.582,911.76,68.208c-26.912-60.784-53.824-121.568-80.736-182.352
		C1721.517,660.186,1624.343,661.649,1507.188,666.768z"/>
	<path style="opacity:0.19;clip-path:url(#SVGID_00000047025524439596570920000001060212046347229082_);fill:#470918;" d="
		M-28.46,493.662c18.095,0.174,36.19,0.348,54.285,0.522c0,1.74,0,3.48,0,5.22c10.787,1.392,21.575,2.784,32.362,4.176
		c14.912-0.591,29.825-1.181,44.737-1.772c2.661-0.105,5.322-0.211,7.983-0.316c5.22,4.698,10.439,9.395,15.659,14.093
		c3.48,7.482,6.96,14.963,10.439,22.445c-6.612-7.83-13.223-15.659-19.835-23.489c-5.243-3.371-10.486-6.743-15.729-10.115
		c-11.716,1.102-23.432,2.204-35.148,3.306c1.25,1.753,2.656,4.072,3.828,6.96c1.724,4.248,2.273,8.08,2.436,10.788
		c-1.798-3.712-3.596-7.424-5.394-11.136c-2.842-2.9-5.684-5.8-8.526-8.7c-11.078,0-22.156,0-33.234,0
		c0.754,2.03,1.508,4.06,2.262,6.09c-4.408,0-8.816,0-13.224,0c-0.232-1.856-0.464-3.712-0.696-5.568
		c-6.438-0.058-12.876-0.116-19.314-0.174C-13.199,501.882-20.829,497.772-28.46,493.662z"/>
	<path style="opacity:0.7;clip-path:url(#SVGID_00000047025524439596570920000001060212046347229082_);fill:#D68147;" d="
		M-14.036,542.184c42.702,0.158,81.864-0.042,81.896-1.392c0.02-0.833-14.869-1.76-14.848-2.088
		c0.023-0.358,17.79,0.342,84.68,4.176c65.552-5.166,98.337-7.563,98.368-7.192c0.037,0.44-45.98,4.771-138.04,12.992
		c6.984,5.551,10.154,8.876,9.512,9.976c-0.885,1.516-9.005-1.191-24.36-8.12c-18.637-0.773-37.275-1.547-55.912-2.32
		c-15.853,0.851-31.707,1.701-47.56,2.552C-18.212,547.907-16.124,545.045-14.036,542.184z"/>
	
		<rect x="-0.696" y="-185.484" style="clip-path:url(#SVGID_00000047025524439596570920000001060212046347229082_);fill:none;" width="1740" height="1044"/>
	<path style="clip-path:url(#SVGID_00000047025524439596570920000001060212046347229082_);fill:#FFFFFF;" d="M498.103,105.444
		c-1.744-5.559-1.036-11.489,4.347-16.98c15.059-15.357,34.507,0.72,48.601,6.656c-10.5-31.999,20.025-13.072,30.868-3.35
		c-0.914-29.567,28.973-19.209,37.744-0.426c-0.045-13.98,5.813-32.061,24.686-29.169c20.035,3.069,26.151,11.204,34.219,31.252
		c5.75-12.869,25.733-19.741,25.778-0.426c13.394-23.046,43.865-18.584,29.13,8.859c7.288-4.839,27.307-15.14,34.94-4.395
		c1.962,2.763,2.307,5.477,1.597,7.979H498.103z"/>
	<path style="clip-path:url(#SVGID_00000047025524439596570920000001060212046347229082_);fill:#FFFFFF;" d="M166.519,143.4
		c-7.633-10.746-27.651-0.444-34.94,4.395c14.735-27.443-15.737-31.905-29.13-8.859c-0.045-19.316-20.029-12.443-25.778,0.426
		c-8.067-20.048-14.184-28.183-34.219-31.252c-18.873-2.892-24.731,15.189-24.686,29.169c-3.698-7.919-11.148-14.324-18.462-16.888
		v30.989h168.813C168.826,148.878,168.482,146.164,166.519,143.4z"/>
</g>
</svg>
